<svg id="Layer_1" data-name="Layer 1" xmlns="http://www.w3.org/2000/svg" viewBox="0 0 795.29 613.93"><defs><style>.cls-1,.cls-12{fill:#27aae1;}.cls-2,.cls-6{fill:#231f20;}.cls-16,.cls-3{fill:#c2b59b;}.cls-10,.cls-12,.cls-13,.cls-14,.cls-3,.cls-4,.cls-5,.cls-6,.cls-7,.cls-8,.cls-9{stroke:#231f20;}.cls-10,.cls-12,.cls-13,.cls-14,.cls-15,.cls-3,.cls-4,.cls-5,.cls-6,.cls-7,.cls-8,.cls-9{stroke-miterlimit:10;}.cls-4{fill:#fff;}.cls-5{fill:none;}.cls-7{fill:#3c2415;}.cls-15,.cls-8{fill:#ed1c24;}.cls-9{fill:#414042;}.cls-10,.cls-11{fill:#726658;}.cls-13{fill:#9b8579;}.cls-14{fill:#bcbec0;}.cls-15{stroke:#ed1c24;}</style></defs><rect class="cls-1" x="1.65" y="0.78" width="792" height="612"/><path class="cls-2" d="M792.58,611.26H5.88c-1.44,0-3.86.48-5.24,0,1.38.48.53.36.81-.59a14.86,14.86,0,0,0,0-3.65V-.39L-.58.74h786.7c1.44,0,3.86-.48,5.24,0-1.38-.48-.53-.36-.81.59a14.86,14.86,0,0,0,0,3.65V612.39c0,.76,2.9.26,2.9-.78V8.88c0-2.61.44-5.67,0-8.25a5.79,5.79,0,0,1,0-1c0-.33-.68-.35-.87-.35H32.73c-10.26,0-20.53-.09-30.8,0H.58c-.62,0-2,.3-2,1.13V603.12c0,2.61-.44,5.67,0,8.25a5.79,5.79,0,0,1,0,1c0,.33.68.35.87.35H759.27c10.26,0,20.53.09,30.8,0h1.35C792.41,612.74,794.52,611.26,792.58,611.26Z" transform="translate(1.65 0.78)"/><path class="cls-2" d="M331.93,224.63c-.6,48.62-32.46,72.66-72.79,72.66s-70.45-25.38-70.45-74,28.78-83,70.45-83.65c14.7-.22,30.39,7.92,41.52,16.81,6.65,5.31,11,11.45,16.27,18.11C328,188.49,332.2,203.42,331.93,224.63Z" transform="translate(1.65 0.78)"/><path class="cls-2" d="M329.43,224.63c-.21,15.16-3.6,30.38-12.24,43a61.2,61.2,0,0,1-30.27,22.71,85.31,85.31,0,0,1-41.27,3.45,71,71,0,0,1-19-5.79A58.52,58.52,0,0,1,211,277.14c-10-9.69-15.83-22.64-18.31-36.36a104,104,0,0,1,3.07-48.66c4.25-13.66,11.84-26.18,22.84-35.38a64.35,64.35,0,0,1,37.52-14.49,47.34,47.34,0,0,1,13.22,1,64.43,64.43,0,0,1,13.8,5,75.16,75.16,0,0,1,23.21,17.11c3.23,3.63,6.18,7.51,9.15,11.35a64.33,64.33,0,0,1,13.38,33.89,117.74,117.74,0,0,1,.59,14c0,3.21,5,3.22,5,0,.11-9.49-.63-19.12-3.31-28.26a68.8,68.8,0,0,0-11.77-22.75c-3.17-4.1-6.31-8.27-9.78-12.13a70.3,70.3,0,0,0-11.48-10.1c-8.27-5.91-17.7-10.76-27.67-13-8.47-1.9-17.25-1.44-25.7.34a67.75,67.75,0,0,0-20.31,7.82c-12.84,7.52-22.81,19.27-29,32.7-7.17,15.42-9.88,32.76-9,49.68.78,15.54,4.92,31.31,14.31,43.94a65.47,65.47,0,0,0,33.63,23.38c14.16,4.33,29.76,4.59,44.21,1.58,13.7-2.86,26.72-9.37,36.44-19.55,10.53-11,16.47-25.54,18.53-40.54a108.66,108.66,0,0,0,1-13.12C334.48,221.41,329.48,221.41,329.43,224.63Z" transform="translate(1.65 0.78)"/><polygon class="cls-3" points="307.83 357.88 217.63 357.88 214.47 281.06 307.83 285.01 307.83 357.88"/><path class="cls-4" d="M420.91,418C396,380,318.85,344.36,310.14,322.21c0,0-31.62,30.41-47.47,32.44C249.59,356.33,212,315.88,212,315.88c-6.49,7-4.65,21-12.13,24.53C134.06,371.24,82.6,358.8,74.36,453.55,72.78,471.75,20,587.47,25.67,612c0,.13,0,.27.07.4,38.55-2.18,108.09-1.42,227.44-.4,21,.18,165.36-.21,187.51,0C440.69,612,440.93,448.46,420.91,418Z" transform="translate(1.65 0.78)"/><path class="cls-3" d="M318.05,240.71c0,44.79-20.57,84.75-58.54,84.66-35.79-.08-59.35-46.2-59.35-91s24-78.33,59.35-78.33S318.05,195.92,318.05,240.71Z" transform="translate(1.65 0.78)"/><path class="cls-5" d="M271.49,244.67c-.09,2.45,1.95,4.36,3.53,6.24s2.74,4.84,1.05,6.61c-.82.87-2.21,2-3.24,1.36-5.41-3.13-9.61,1.8-14.18.39a44.24,44.24,0,0,0-4.48-1.47c-4-.79-8.68,1-11.79-1.6-1.44-4.41,1.66-8.89,4.62-12.46s6.15-7.93,4.91-12.39c-.7-2.56,0-6.2-.38-8.83" transform="translate(1.65 0.78)"/><path class="cls-6" d="M288.89,276.32c0,4.81-13.16,12.66-29.38,12.66s-26.33-7.76-26.33-12.57,9.7-1.67,25.93-1.67S288.89,271.51,288.89,276.32Z" transform="translate(1.65 0.78)"/><polygon class="cls-4" points="275.87 286.79 250.56 286.79 236.1 277.19 286.95 277.19 275.87 286.79"/><path class="cls-4" d="M298.54,226.87c1.26,2-6.27-.93-13.24-.93s-12.34,3.33-12.34.93,5.43-5.94,12.39-5.94S297.18,224.67,298.54,226.87Z" transform="translate(1.65 0.78)"/><path class="cls-4" d="M243.68,225.94c0,2.4-5.68,0-12.89,0s-6.5,4.6-12.95,1.32c-2.15-1.08,5.44-6.33,12.65-6.33S243.68,223.54,243.68,225.94Z" transform="translate(1.65 0.78)"/><path class="cls-7" d="M290.36,224.76c0-2.55-2-3.82-4.55-3.82s-4.68,1.27-4.68,3.82,1.63,1.18,4.17,1.18S290.36,227.31,290.36,224.76Z" transform="translate(1.65 0.78)"/><path class="cls-7" d="M225.62,223.51c0-2.66,2.22-2.58,4.87-2.58s4.75-.08,4.75,2.58-1.79,2.43-4.45,2.43S225.62,226.16,225.62,223.51Z" transform="translate(1.65 0.78)"/><path class="cls-2" d="M331.11,198.12c3.22,0,3.22-5,0-5s-3.22,5,0,5Z" transform="translate(1.65 0.78)"/><path class="cls-2" d="M329.92,194.16c3.22,0,3.23-5,0-5s-3.22,5,0,5Z" transform="translate(1.65 0.78)"/><path class="cls-2" d="M328,191c3.21,0,3.22-5,0-5s-3.23,5,0,5Z" transform="translate(1.65 0.78)"/><path class="cls-2" d="M326.36,186.64c3.22,0,3.23-5,0-5s-3.22,5,0,5Z" transform="translate(1.65 0.78)"/><path class="cls-2" d="M328.34,185.46c3.22,0,3.22-5,0-5s-3.22,5,0,5Z" transform="translate(1.65 0.78)"/><path class="cls-2" d="M325.57,183.87c3.22,0,3.22-5,0-5s-3.22,5,0,5Z" transform="translate(1.65 0.78)"/><path class="cls-2" d="M322,181.5c3.22,0,3.22-5,0-5s-3.22,5,0,5Z" transform="translate(1.65 0.78)"/><path class="cls-2" d="M320,176c3.22,0,3.23-5,0-5s-3.22,5,0,5Z" transform="translate(1.65 0.78)"/><path class="cls-2" d="M323.2,180.31c3.22,0,3.22-5,0-5s-3.22,5,0,5Z" transform="translate(1.65 0.78)"/><path class="cls-2" d="M318.05,172.8c3.22,0,3.23-5,0-5s-3.22,5,0,5Z" transform="translate(1.65 0.78)"/><path class="cls-2" d="M322.41,180.31c3.21,0,3.22-5,0-5s-3.23,5,0,5Z" transform="translate(1.65 0.78)"/><path class="cls-2" d="M306.19,164.09c3.21,0,3.22-5,0-5s-3.23,5,0,5Z" transform="translate(1.65 0.78)"/><path class="cls-2" d="M311.16,165.58c.59,0,1.63-.19,1.92-.79s-.24-.86-.79-.86-1.62.2-1.91.8.24.85.78.85Z" transform="translate(1.65 0.78)"/><path class="cls-2" d="M310.09,160.44l-.11-.09.2.16a1.84,1.84,0,0,1-.48-.59l.11.21a1.92,1.92,0,0,1-.23-.84v.23a2.28,2.28,0,0,1,0-.45.58.58,0,0,0-.32-.61,1.14,1.14,0,0,0-.44-.14,1.57,1.57,0,0,0-.53,0,2.23,2.23,0,0,0-1.09.38,1.16,1.16,0,0,0-.53.68,2.62,2.62,0,0,0,0,.79,1.83,1.83,0,0,0,.14.57,2.68,2.68,0,0,0,.38.68,3.2,3.2,0,0,0,.61.55,1,1,0,0,0,.44.13,1.35,1.35,0,0,0,.53,0,1.65,1.65,0,0,0,.58-.14,1.59,1.59,0,0,0,.51-.24c.22-.16.51-.39.53-.68v-.24a.62.62,0,0,0-.32-.37Z" transform="translate(1.65 0.78)"/><path class="cls-2" d="M304.42,155.65c.57,0,1.63-.2,1.92-.78s-.24-.78-.76-.78-1.63.2-1.92.77.24.79.76.79Z" transform="translate(1.65 0.78)"/><path class="cls-2" d="M303.55,156.05v1.18a.37.37,0,0,0,.2.25.58.58,0,0,0,.36.15,1.46,1.46,0,0,0,.51,0,2.19,2.19,0,0,0,.57-.09l.38-.13a2.22,2.22,0,0,0,.59-.36l.19-.2a.53.53,0,0,0,.1-.42v-1.19a.37.37,0,0,0-.2-.24.66.66,0,0,0-.36-.16,1.75,1.75,0,0,0-.51,0,1.84,1.84,0,0,0-.57.09l-.38.12a2.22,2.22,0,0,0-.59.36l-.19.21a.52.52,0,0,0-.1.42Z" transform="translate(1.65 0.78)"/><path class="cls-2" d="M298.48,154.57l0,.06-.08-.1a3.36,3.36,0,0,1,.76,2.31c0,.16.46.18.51.18a3.11,3.11,0,0,0,1-.15,3.59,3.59,0,0,0,1-.39c.15-.11.33-.21.34-.42a3.4,3.4,0,0,0-.9-2.46.59.59,0,0,0-.29-.07,1.62,1.62,0,0,0-.44,0,4.4,4.4,0,0,0-1.13.25,2.18,2.18,0,0,0-.81.43l-.12.14a.15.15,0,0,0,.06.22Z" transform="translate(1.65 0.78)"/><path class="cls-2" d="M292.62,148.68a15.31,15.31,0,0,1,2.06,2.8l-.1-.19a15.6,15.6,0,0,1,1,2c.23.59,1.17.49,1.65.35a2.15,2.15,0,0,0,1-.49c.16-.15.38-.4.29-.63a16.19,16.19,0,0,0-3.14-5,1.2,1.2,0,0,0-.79-.27,2.75,2.75,0,0,0-1.13.23c-.36.16-1.23.69-.77,1.18Z" transform="translate(1.65 0.78)"/><path class="cls-2" d="M289.39,145.56l.1.17-.11-.19a9.72,9.72,0,0,1,1.17,3.38c0,.24.38.37.56.41a2.65,2.65,0,0,0,2.05-.55.73.73,0,0,0,.28-.64,9.94,9.94,0,0,0-1.36-3.72c-.12-.21-.59-.26-.78-.27a2.62,2.62,0,0,0-1.14.23,1.52,1.52,0,0,0-.77.57l-.1.22a.4.4,0,0,0,.1.39Z" transform="translate(1.65 0.78)"/><path class="cls-2" d="M285,142.56l1.82,4c.09.18.34.21.52.23a3.16,3.16,0,0,0,1.06-.14,3.19,3.19,0,0,0,1-.41c.11-.09.41-.28.33-.46l-1.83-4c-.08-.18-.34-.21-.51-.22a3.15,3.15,0,0,0-1.06.13,3.19,3.19,0,0,0-1,.41c-.12.09-.41.28-.33.46Z" transform="translate(1.65 0.78)"/><path class="cls-2" d="M279,141a7.48,7.48,0,0,0,2.09,3,1.2,1.2,0,0,0,.78.26A2.61,2.61,0,0,0,283,144a1.65,1.65,0,0,0,.77-.57c.1-.19.19-.45,0-.62a7.11,7.11,0,0,1-1.54-1.86l.11.19a6.91,6.91,0,0,1-.44-.91.69.69,0,0,0-.56-.41,2.36,2.36,0,0,0-1.09,0,2.16,2.16,0,0,0-1,.5c-.15.15-.38.4-.29.63Z" transform="translate(1.65 0.78)"/><path class="cls-2" d="M274.16,139.31l.25.13-.19-.11a4.76,4.76,0,0,1,1.56,1.5l-.1-.15c.07.11.13.22.19.33a.34.34,0,0,0,.19.2.73.73,0,0,0,.35.12,2.64,2.64,0,0,0,1.08-.1,2.53,2.53,0,0,0,1-.45l.2-.19a.43.43,0,0,0,.11-.36,5.16,5.16,0,0,0-.94-1.28,5,5,0,0,0-1.34-.93,1.16,1.16,0,0,0-.42-.08,1.82,1.82,0,0,0-.52,0,3.1,3.1,0,0,0-1.1.36l-.27.17a1,1,0,0,0-.3.37v.18a.47.47,0,0,0,.29.26Z" transform="translate(1.65 0.78)"/><path class="cls-2" d="M268.44,137.15l2,2.38a.58.58,0,0,0,.3.09,1.63,1.63,0,0,0,.44,0,4.31,4.31,0,0,0,1.13-.25l.33-.14a1.72,1.72,0,0,0,.48-.31l.12-.15a.18.18,0,0,0-.07-.24l-2-2.38a.61.61,0,0,0-.3-.08,1.3,1.3,0,0,0-.44,0,4,4,0,0,0-1.13.25l-.33.14a2.41,2.41,0,0,0-.48.3l-.11.15a.17.17,0,0,0,.06.24Z" transform="translate(1.65 0.78)"/><path class="cls-2" d="M262.54,136.05l1.57,2a.72.72,0,0,0,.33.2,1.07,1.07,0,0,0,.47.09,1.52,1.52,0,0,0,.56,0,1.88,1.88,0,0,0,.57-.17,1.62,1.62,0,0,0,.77-.59.54.54,0,0,0,0-.64l-1.58-2a.61.61,0,0,0-.33-.19,1.06,1.06,0,0,0-.46-.1,2.89,2.89,0,0,0-1.14.22,1.58,1.58,0,0,0-.77.6.53.53,0,0,0,0,.64Z" transform="translate(1.65 0.78)"/><path class="cls-2" d="M261.62,136.12H249a2.09,2.09,0,0,0-1.9.84c-.32.59.27,1.06.84,1.06h12.66a2.11,2.11,0,0,0,1.9-.85c.31-.59-.28-1-.84-1Z" transform="translate(1.65 0.78)"/><path class="cls-2" d="M243.68,139.69,233.41,138a3.46,3.46,0,0,0-2,.37c-.22.11-1,.66-.35.77l10.26,1.71a3.5,3.5,0,0,0,2-.37c.22-.1,1-.66.35-.77Z" transform="translate(1.65 0.78)"/><path class="cls-2" d="M237.16,140h-1.58a2.68,2.68,0,0,0-.56.07,2.87,2.87,0,0,0-.57.17,2,2,0,0,0-.47.23,1.35,1.35,0,0,0-.33.26c-.1.14-.21.33,0,.47l.18.09a1.62,1.62,0,0,0,.58.07H236a2.7,2.7,0,0,0,.56-.08,3.08,3.08,0,0,0,.57-.17,1.71,1.71,0,0,0,.47-.23,1.15,1.15,0,0,0,.33-.26c.1-.14.21-.33,0-.47l-.18-.09a1.42,1.42,0,0,0-.58-.06Z" transform="translate(1.65 0.78)"/><path class="cls-2" d="M233.11,141.4a13,13,0,0,0-4.66,1.21,1.57,1.57,0,0,0-.73.73.91.91,0,0,0,.07.86,1.64,1.64,0,0,0,2,.26c.28-.13.56-.25.85-.36l-.37.15a10.33,10.33,0,0,1,2-.53l-.4.06c.35-.05.7-.09,1.06-.11a2,2,0,0,0,1.08-.41,1.25,1.25,0,0,0,.5-.82c0-.74-.71-1.08-1.36-1Z" transform="translate(1.65 0.78)"/><path class="cls-2" d="M229.81,142.78l-3.57,2c-.18.1-.5.31-.56.54a.35.35,0,0,0,.27.43,1.87,1.87,0,0,0,.94,0,3.31,3.31,0,0,0,1.1-.36l3.57-2c.18-.11.5-.31.57-.55a.37.37,0,0,0-.28-.43,2,2,0,0,0-.94,0,3.31,3.31,0,0,0-1.1.36Z" transform="translate(1.65 0.78)"/><path class="cls-2" d="M190,229.49l-1.61-2.36a.61.61,0,0,0-.33-.19,1.06,1.06,0,0,0-.46-.1,2.61,2.61,0,0,0-1.14.22,1.62,1.62,0,0,0-.77.59l-.09.23a.43.43,0,0,0,.11.42l1.6,2.35a.7.7,0,0,0,.34.2,1,1,0,0,0,.46.09,2.46,2.46,0,0,0,1.13-.22,1.56,1.56,0,0,0,.77-.59l.1-.22a.49.49,0,0,0-.11-.42Z" transform="translate(1.65 0.78)"/><path class="cls-2" d="M187.84,222.9l-.78-3.56a1,1,0,0,0-.63-.63,1.87,1.87,0,0,0-1.1,0c-.62.19-1.33.7-1.17,1.44l.78,3.56a1,1,0,0,0,.62.63,1.83,1.83,0,0,0,1.11,0c.62-.19,1.33-.7,1.17-1.44Z" transform="translate(1.65 0.78)"/><path class="cls-2" d="M188.53,220.37l.41-2a.54.54,0,0,0-.32-.57.94.94,0,0,0-.43-.13,1.57,1.57,0,0,0-.53,0,2.45,2.45,0,0,0-1.09.38,1.11,1.11,0,0,0-.54.66l-.41,2a.56.56,0,0,0,.32.58.94.94,0,0,0,.43.13,1.57,1.57,0,0,0,.53,0A2.45,2.45,0,0,0,188,221a1.14,1.14,0,0,0,.54-.66Z" transform="translate(1.65 0.78)"/><path class="cls-2" d="M189.72,214.73l.8-3.95c0-.19-.05-.23-.23-.27a2.58,2.58,0,0,0-.92.05,4.83,4.83,0,0,0-1.1.34L188,211a.94.94,0,0,0-.32.27l-.8,4c0,.18,0,.22.23.27a2.59,2.59,0,0,0,.92-.06,4.8,4.8,0,0,0,1.1-.33l.28-.14a.87.87,0,0,0,.32-.28Z" transform="translate(1.65 0.78)"/><path class="cls-2" d="M193.31,200.52l.4-1.19a.13.13,0,0,0,0-.19.25.25,0,0,0-.22-.13,1.15,1.15,0,0,0-.41,0,2.35,2.35,0,0,0-.52.05,3.92,3.92,0,0,0-1.1.35l-.27.15a1,1,0,0,0-.32.31l-.4,1.18a.15.15,0,0,0,0,.2.27.27,0,0,0,.22.13,1.43,1.43,0,0,0,.41,0,3,3,0,0,0,.52,0,3.92,3.92,0,0,0,1.1-.35l.27-.15a.87.87,0,0,0,.32-.31Z" transform="translate(1.65 0.78)"/><path class="cls-2" d="M190.54,201.56v-2a.36.36,0,0,0-.2-.23.64.64,0,0,0-.36-.14,2.76,2.76,0,0,0-2,.55l-.19.2a.47.47,0,0,0-.1.4v2a.34.34,0,0,0,.19.23.7.7,0,0,0,.36.14,2.46,2.46,0,0,0,1.08-.07,2.33,2.33,0,0,0,1-.48l.19-.19a.5.5,0,0,0,.11-.4Z" transform="translate(1.65 0.78)"/><path class="cls-2" d="M190.94,198.63l.83-3.55a.6.6,0,0,0-.32-.61,1.61,1.61,0,0,0-1-.15,2.45,2.45,0,0,0-1.09.38,1.23,1.23,0,0,0-.53.68l-.83,3.55a.59.59,0,0,0,.32.61,1.63,1.63,0,0,0,1,.15,2.45,2.45,0,0,0,1.09-.38,1.19,1.19,0,0,0,.53-.68Z" transform="translate(1.65 0.78)"/><path class="cls-2" d="M193.77,188.65l.76-2.78a.11.11,0,0,0,0-.17.24.24,0,0,0-.21-.1,2.55,2.55,0,0,0-.91.06,4.73,4.73,0,0,0-1.11.33l-.27.14a1,1,0,0,0-.33.28l-.76,2.78a.1.1,0,0,0,0,.16.22.22,0,0,0,.21.1,2.53,2.53,0,0,0,.91,0,5.28,5.28,0,0,0,1.11-.34l.27-.14a1,1,0,0,0,.33-.27Z" transform="translate(1.65 0.78)"/><path class="cls-2" d="M196.46,185.1l1.22-2.36c.1-.19-.11-.31-.25-.36a2.24,2.24,0,0,0-.93,0,3.92,3.92,0,0,0-1.1.35,1.26,1.26,0,0,0-.58.49l-1.22,2.35c-.1.19.11.31.25.36a2.09,2.09,0,0,0,.93,0,3.92,3.92,0,0,0,1.1-.35,1.25,1.25,0,0,0,.58-.48Z" transform="translate(1.65 0.78)"/><path class="cls-2" d="M330.49,196.79a4.76,4.76,0,0,0,2.22,3.07,1.07,1.07,0,0,0,.43.09,1.81,1.81,0,0,0,.52,0,2.87,2.87,0,0,0,1.1-.37c.2-.13.52-.32.56-.58v-.19a.46.46,0,0,0-.29-.29l0,0,.19.12a4.35,4.35,0,0,1-1.38-1.42l.1.16a4.22,4.22,0,0,1-.53-1.34c0-.22-.37-.33-.55-.36a2.48,2.48,0,0,0-1.08.08,2.57,2.57,0,0,0-1,.47c-.16.15-.35.34-.29.59Z" transform="translate(1.65 0.78)"/><path class="cls-2" d="M330.2,201.6l1.17.81a.59.59,0,0,0,.31.12,1.29,1.29,0,0,0,.44,0,2.61,2.61,0,0,0,.56-.08,2.67,2.67,0,0,0,.57-.16l.34-.15a1.72,1.72,0,0,0,.46-.34l.11-.17a.23.23,0,0,0-.07-.29l-1.17-.81a.63.63,0,0,0-.31-.12,1.71,1.71,0,0,0-.45,0,3.31,3.31,0,0,0-.55.08,3,3,0,0,0-.58.17l-.33.14a1.77,1.77,0,0,0-.47.34l-.11.17a.24.24,0,0,0,.08.29Z" transform="translate(1.65 0.78)"/><path class="cls-2" d="M331.29,207.07l.83,3.55c0,.16.41.16.49.16a3.79,3.79,0,0,0,1.06-.17,4,4,0,0,0,1-.38c.12-.07.39-.21.35-.38l-.82-3.56c0-.15-.42-.15-.5-.15a4.11,4.11,0,0,0-1.05.16,3.92,3.92,0,0,0-1,.39c-.11.07-.39.21-.35.38Z" transform="translate(1.65 0.78)"/><path class="cls-2" d="M332.36,213.43l.82,3.94c.05.23.38.32.55.35a2.62,2.62,0,0,0,1.08-.08,2.44,2.44,0,0,0,1-.47c.16-.14.35-.33.3-.57l-.82-3.95c-.05-.22-.37-.32-.55-.35a2.63,2.63,0,0,0-1.08.08,2.44,2.44,0,0,0-1,.47c-.16.15-.35.33-.3.58Z" transform="translate(1.65 0.78)"/><path class="cls-2" d="M333.13,220.56l.4,1.19a.55.55,0,0,0,.22.32.68.68,0,0,0,.38.21,1.29,1.29,0,0,0,.51.07,1.62,1.62,0,0,0,.58-.07l.38-.14a1.8,1.8,0,0,0,.58-.41.84.84,0,0,0,.25-.76l-.4-1.19a.6.6,0,0,0-.22-.32.75.75,0,0,0-.38-.21,1.31,1.31,0,0,0-.52-.07,1.66,1.66,0,0,0-.58.08l-.37.13a2,2,0,0,0-.58.41.84.84,0,0,0-.25.76Z" transform="translate(1.65 0.78)"/><path class="cls-6" d="M203.13,198.78c0-6.89,26-49.66,58-49.66s47,25.37,47,32.25-7.87-16.61-48.62-11.07C227.79,174.61,203.13,205.67,203.13,198.78Z" transform="translate(1.65 0.78)"/><path class="cls-2" d="M269.26,178.32c9.66,0,9.67-15,0-15s-9.66,15,0,15Z" transform="translate(1.65 0.78)"/><path class="cls-2" d="M274.27,177.27c9.66,0,9.67-15,0-15s-9.66,15,0,15Z" transform="translate(1.65 0.78)"/><path class="cls-2" d="M257.66,175.69c9.65,0,9.67-15,0-15s-9.67,15,0,15Z" transform="translate(1.65 0.78)"/><path class="cls-2" d="M250.27,176.48c9.66,0,9.67-15,0-15s-9.66,15,0,15Z" transform="translate(1.65 0.78)"/><path class="cls-2" d="M244.37,163a313.81,313.81,0,0,0-43.26,27.18c-3.26,2.44-4.85,6.45-2.69,10.26,1.83,3.21,7,5.11,10.26,2.69A313.81,313.81,0,0,1,251.94,176c8.56-4.45,1-17.4-7.57-12.95Z" transform="translate(1.65 0.78)"/><path class="cls-2" d="M200.16,207.07c9.66,0,9.67-15,0-15s-9.66,15,0,15Z" transform="translate(1.65 0.78)"/><path class="cls-2" d="M284.3,173.58c9.65,0,9.66-15,0-15s-9.67,15,0,15Z" transform="translate(1.65 0.78)"/><path class="cls-2" d="M290.89,174.63c9.65,0,9.67-15,0-15s-9.67,15,0,15Z" transform="translate(1.65 0.78)"/><path class="cls-2" d="M291.84,175.48l.53.26a5.5,5.5,0,0,0,2.78.89,7.67,7.67,0,0,0,7.48-3.58l.75-1.79a7.51,7.51,0,0,0,0-4l-.75-1.79a7.7,7.7,0,0,0-2.69-2.69l-.53-.26a5.51,5.51,0,0,0-2.79-.89,7.67,7.67,0,0,0-7.47,3.58l-.76,1.79a7.71,7.71,0,0,0,0,4l.76,1.79a7.54,7.54,0,0,0,2.69,2.69Z" transform="translate(1.65 0.78)"/><path class="cls-2" d="M300.38,179.64c9.66,0,9.67-15,0-15s-9.66,15,0,15Z" transform="translate(1.65 0.78)"/><path class="cls-2" d="M303.29,182.54c9.65,0,9.66-15,0-15s-9.67,15,0,15Z" transform="translate(1.65 0.78)"/><path class="cls-2" d="M307.24,186.24c9.65,0,9.67-15,0-15s-9.67,15,0,15Z" transform="translate(1.65 0.78)"/><path class="cls-2" d="M310.14,188.61c9.65,0,9.67-15,0-15s-9.66,15,0,15Z" transform="translate(1.65 0.78)"/><path class="cls-2" d="M299,182.54l.26,1.05a.27.27,0,0,0,.18.19.72.72,0,0,0,.35.11,1.67,1.67,0,0,0,.5,0,2.28,2.28,0,0,0,.57-.1l.38-.12a2.46,2.46,0,0,0,.6-.32l.2-.18a.44.44,0,0,0,.12-.34l-.26-1.06a.28.28,0,0,0-.19-.19.59.59,0,0,0-.34-.1,2.09,2.09,0,0,0-.5,0,2.61,2.61,0,0,0-.57.1l-.38.13a2.16,2.16,0,0,0-.6.32l-.2.17a.38.38,0,0,0-.12.35Z" transform="translate(1.65 0.78)"/><path class="cls-2" d="M300.81,184.39l.52,1.58a.82.82,0,0,0,.58.49,1.51,1.51,0,0,0,.52,0,1.86,1.86,0,0,0,.57-.07,2,2,0,0,0,1-.52.78.78,0,0,0,.27-.71l-.52-1.59a.79.79,0,0,0-.58-.48,1.51,1.51,0,0,0-.52,0,1.87,1.87,0,0,0-.57.08,2,2,0,0,0-1,.52.78.78,0,0,0-.27.71Z" transform="translate(1.65 0.78)"/><path class="cls-2" d="M295.78,179.75a2.12,2.12,0,0,0,.61,1.89.59.59,0,0,0,.31.12,1.38,1.38,0,0,0,.45,0,2.52,2.52,0,0,0,.55-.08,2.94,2.94,0,0,0,.58-.16l.33-.15a1.44,1.44,0,0,0,.46-.35l.11-.17a.25.25,0,0,0-.08-.31,1.56,1.56,0,0,1-.23-.28l.09.14a2,2,0,0,1-.31-1.15v.16s0-.1,0-.14a.21.21,0,0,0,0-.24.36.36,0,0,0-.23-.17,1.52,1.52,0,0,0-.42-.06,2.27,2.27,0,0,0-.52,0,3.47,3.47,0,0,0-1.1.36l-.27.17a.87.87,0,0,0-.31.35Z" transform="translate(1.65 0.78)"/><path class="cls-2" d="M290.06,176.89l1.06,1.06a.66.66,0,0,0,.31.13,1.35,1.35,0,0,0,.45,0,2,2,0,0,0,.55-.08,2.38,2.38,0,0,0,.58-.16l.33-.15a1.75,1.75,0,0,0,.46-.35l.11-.18a.28.28,0,0,0-.08-.31l-1.06-1.06a.66.66,0,0,0-.31-.13,1.35,1.35,0,0,0-.45,0,2,2,0,0,0-.55.08,2.94,2.94,0,0,0-.58.16l-.33.15a1.75,1.75,0,0,0-.46.35l-.11.18a.28.28,0,0,0,.08.31Z" transform="translate(1.65 0.78)"/><path class="cls-2" d="M293.51,178.27l.52.53a.81.81,0,0,0,.34.21,1.19,1.19,0,0,0,.46.1,2.09,2.09,0,0,0,.56-.05,2.28,2.28,0,0,0,.58-.17l.32-.18a1.29,1.29,0,0,0,.44-.43l.1-.23a.48.48,0,0,0-.12-.43l-.52-.53a.81.81,0,0,0-.34-.21,1.19,1.19,0,0,0-.46-.1,2.2,2.2,0,0,0-.57.05,2.33,2.33,0,0,0-.57.17l-.32.18a1.29,1.29,0,0,0-.44.43l-.1.23a.48.48,0,0,0,.12.43Z" transform="translate(1.65 0.78)"/><path class="cls-2" d="M291.79,175.86a3.75,3.75,0,0,0,2-.55c.39-.29.48-.55-.14-.55a3.76,3.76,0,0,0-2.05.55c-.39.29-.47.55.15.55Z" transform="translate(1.65 0.78)"/><path class="cls-2" d="M289,175.86l1.05.79a.7.7,0,0,0,.33.19,1.21,1.21,0,0,0,.46.08,1.75,1.75,0,0,0,.56-.06,2,2,0,0,0,.58-.17l.32-.16a1.47,1.47,0,0,0,.45-.41l.1-.21a.43.43,0,0,0-.11-.4l-1-.79a.67.67,0,0,0-.33-.18,1,1,0,0,0-.46-.08,2.12,2.12,0,0,0-.56,0,2.21,2.21,0,0,0-.57.17l-.33.17a1.44,1.44,0,0,0-.45.4l-.1.22a.43.43,0,0,0,.11.39Z" transform="translate(1.65 0.78)"/><path class="cls-2" d="M287.88,173.31l.27.53a.47.47,0,0,0,.22.31.66.66,0,0,0,.37.21,1.51,1.51,0,0,0,.52.06,1.88,1.88,0,0,0,.58-.07l.37-.14a1.82,1.82,0,0,0,.58-.4l.18-.24a.7.7,0,0,0,.08-.51l-.27-.53a.47.47,0,0,0-.22-.31.66.66,0,0,0-.37-.21,1.51,1.51,0,0,0-.52-.06,1.88,1.88,0,0,0-.58.07l-.37.14a1.82,1.82,0,0,0-.58.4l-.18.24a.7.7,0,0,0-.08.51Z" transform="translate(1.65 0.78)"/><path class="cls-2" d="M287.68,174.81l1.57,1.85a.63.63,0,0,0,.32.15,1.17,1.17,0,0,0,.45.06,2.1,2.1,0,0,0,.56-.07,2.21,2.21,0,0,0,.57-.17l.33-.15a1.67,1.67,0,0,0,.46-.37l.11-.2a.34.34,0,0,0-.1-.34l-1.57-1.85a.63.63,0,0,0-.32-.15,1.12,1.12,0,0,0-.45-.06,2.51,2.51,0,0,0-.55.07,2.41,2.41,0,0,0-.58.17l-.33.15a1.83,1.83,0,0,0-.46.37l-.1.2a.32.32,0,0,0,.09.34Z" transform="translate(1.65 0.78)"/><path class="cls-2" d="M285.32,174.48l1.05.53a.57.57,0,0,0,.31.1,1.29,1.29,0,0,0,.44,0,2.61,2.61,0,0,0,.55-.08,3.83,3.83,0,0,0,.58-.16l.33-.15a1.86,1.86,0,0,0,.47-.32l.11-.16a.19.19,0,0,0-.07-.26l-1-.53a.58.58,0,0,0-.31-.11,1.61,1.61,0,0,0-.44,0,2.53,2.53,0,0,0-.55.09,3.83,3.83,0,0,0-.58.16l-.33.15a1.63,1.63,0,0,0-.47.32l-.12.15a.21.21,0,0,0,.08.27Z" transform="translate(1.65 0.78)"/><path class="cls-2" d="M282.07,173.15l-.53,1.32a.2.2,0,0,0,0,.24.29.29,0,0,0,.23.18,1.16,1.16,0,0,0,.42.07,1.82,1.82,0,0,0,.52,0,3.24,3.24,0,0,0,1.1-.36,1.24,1.24,0,0,0,.57-.54l.53-1.32a.25.25,0,0,0,0-.25.37.37,0,0,0-.24-.18,1.13,1.13,0,0,0-.41-.06,1.89,1.89,0,0,0-.53,0,3.16,3.16,0,0,0-1.1.36,1.17,1.17,0,0,0-.56.54Z" transform="translate(1.65 0.78)"/><path class="cls-3" d="M763.24,541.9s-2.56-48.23-147.47-60.1c-110.46-3.72-152.66,48.61-152.66,72.76-.48,17.06,0,56.31,0,56.31H617.05c41.82,0,146.06,1.1,146.06,1.1Z" transform="translate(1.65 0.78)"/><path class="cls-2" d="M280.55,174.32,278,176.78c-.1.1-.22.23-.07.34a.62.62,0,0,0,.3.06,1.24,1.24,0,0,0,.43,0,4.42,4.42,0,0,0,1.13-.26,2.18,2.18,0,0,0,.82-.41l2.55-2.46c.1-.1.22-.23.06-.34a.72.72,0,0,0-.29-.06,1.62,1.62,0,0,0-.44,0,4.8,4.8,0,0,0-1.12.26,2.18,2.18,0,0,0-.82.41Z" transform="translate(1.65 0.78)"/><path class="cls-2" d="M281.18,172.93a7.78,7.78,0,0,1-1.17.88c.3-.16-.06,0-.11.07l-.32.19-.64.34-.16.08.08,0s-.31.14-.33.15l-.68.26-.18.06.12,0-.35.11c-.23.07-.47.12-.7.18a2.51,2.51,0,0,0-1,.45c-.14.12-.37.34-.31.55.15.55,1.29.3,1.62.23a15.11,15.11,0,0,0,6.39-3.15c.14-.12.37-.33.31-.55s-.36-.3-.54-.32a2.89,2.89,0,0,0-2.05.55Z" transform="translate(1.65 0.78)"/><path class="cls-2" d="M278.64,177.65a4.38,4.38,0,0,1-.58.56l.26-.2a5.36,5.36,0,0,1-.59.38l.32-.17a4.72,4.72,0,0,1-.56.24l.38-.13-.39.11a2.15,2.15,0,0,0-1,.52c-.15.15-.35.44-.27.68a.76.76,0,0,0,.58.46,2.36,2.36,0,0,0,1.09,0,6.58,6.58,0,0,0,1.85-.79,5.62,5.62,0,0,0,.75-.56,3.48,3.48,0,0,0,.47-.47.81.81,0,0,0,.28-.69.76.76,0,0,0-.58-.46,2.12,2.12,0,0,0-1.09,0l-.38.13a1.88,1.88,0,0,0-.58.38Z" transform="translate(1.65 0.78)"/><path class="cls-2" d="M277.13,176.71l-2.1,1.07a1.45,1.45,0,0,0-.38.22.63.63,0,0,0-.22.21c-.07.17.08.25.23.28a2.37,2.37,0,0,0,.92,0,4.45,4.45,0,0,0,1.11-.34l2.1-1.07a2,2,0,0,0,.38-.21.77.77,0,0,0,.22-.22c.07-.17-.08-.25-.24-.28a2.33,2.33,0,0,0-.91,0,4.21,4.21,0,0,0-1.11.34Z" transform="translate(1.65 0.78)"/><path class="cls-2" d="M270.63,178.29a6.61,6.61,0,0,1-.63.77l-.09.1s-.16.14,0,0,0,0,0,0l-.11.09c-.13.1-.26.21-.4.3l-.09.07.11-.07-.21.12-.21.11-.13.06.16-.07-.22.09-.13,0c-.18.07.24-.07.23-.07l-.26.08-.1,0-.08,0,.26-.05a3.82,3.82,0,0,0-1.1.35c-.17.09-.53.31-.58.53-.11.57.91.51,1.21.45a7.82,7.82,0,0,0,5.05-3.05c.1-.16.19-.32,0-.48a1.13,1.13,0,0,0-.76-.17,3.18,3.18,0,0,0-1.13.24,1.68,1.68,0,0,0-.79.5Z" transform="translate(1.65 0.78)"/><path class="cls-2" d="M267.91,177.66a3.85,3.85,0,0,1-.6.85l.19-.2a5.15,5.15,0,0,1-.61.53l.26-.19a3.55,3.55,0,0,1-.53.32l.33-.16-.36.15a1.89,1.89,0,0,0-.46.26,1.14,1.14,0,0,0-.32.3.43.43,0,0,0,0,.57,1.07,1.07,0,0,0,.77.23,3.4,3.4,0,0,0,1.14-.22,6.12,6.12,0,0,0,1.8-1.08,4.65,4.65,0,0,0,1.08-1.33.39.39,0,0,0,.11-.3.32.32,0,0,0-.1-.27,1.15,1.15,0,0,0-.78-.24,3.22,3.22,0,0,0-1.14.23l-.32.17a1.53,1.53,0,0,0-.46.38Z" transform="translate(1.65 0.78)"/><path class="cls-2" d="M266.84,177.07l-2.11,1.58c-.13.09-.38.3-.32.5s.37.26.52.28a3,3,0,0,0,1.07-.12,3.08,3.08,0,0,0,1-.43l2.11-1.58c.13-.1.38-.3.32-.51s-.37-.26-.52-.27a3,3,0,0,0-1.07.11,2.89,2.89,0,0,0-1,.44Z" transform="translate(1.65 0.78)"/><path class="cls-2" d="M265.23,176.84c-.07.17-.14.33-.22.5l.1-.21a7.65,7.65,0,0,1-.58,1l-.37.48-.18.21a.52.52,0,0,1-.1.11c-.12.14.14-.14.05,0a10.49,10.49,0,0,1-.86.77l-.22.16c.35-.26,0,0,0,0l-.52.31a1.13,1.13,0,0,0-.55.59.43.43,0,0,0,.29.5,2.53,2.53,0,0,0,2-.28,9,9,0,0,0,4.06-4.5c.09-.22-.13-.42-.29-.5a1.82,1.82,0,0,0-.95-.09,2.09,2.09,0,0,0-1.66,1Z" transform="translate(1.65 0.78)"/><path class="cls-2" d="M262.64,176.91a8.45,8.45,0,0,1-.8,1l-.24.23c-.13.14.12-.1,0,0l-.13.11c-.16.14-.32.28-.49.41l-.24.17c-.08.06-.42.26-.07,0l-.55.33-.26.13c-.23.12.25-.11.11-.05l-.15.07a6.62,6.62,0,0,1-.62.24,1.89,1.89,0,0,0-.8.51c-.11.14-.19.36,0,.5.48.41,1.4.12,1.9-.05a10.17,10.17,0,0,0,5-3.68c.11-.16.18-.34,0-.5a1.14,1.14,0,0,0-.76-.19,3.42,3.42,0,0,0-1.14.24,1.89,1.89,0,0,0-.79.51Z" transform="translate(1.65 0.78)"/><path class="cls-2" d="M262.1,174a13.31,13.31,0,0,1-1.69,2.33l-.24.26c-.05.06-.12.19,0,0l-.13.12-.52.49a14.11,14.11,0,0,1-1.15.89c-.16.11-.36.37-.3.58s.36.33.55.35a3,3,0,0,0,2.05-.54,13.82,13.82,0,0,0,4.09-4.48c.1-.19.18-.36,0-.55a1.24,1.24,0,0,0-.78-.21,3.12,3.12,0,0,0-1.13.23,1.56,1.56,0,0,0-.78.54Z" transform="translate(1.65 0.78)"/><path class="cls-2" d="M258.7,176.43a9.49,9.49,0,0,1-.72.7l-.11.09c-.1.09,0,0,.07-.05l-.2.16-.42.31c-.13.09-.27.19-.41.27l-.22.14s-.17.1,0,0,0,0,0,0a10,10,0,0,1-.93.46c-.16.07-.51.28-.58.48s.08.31.25.36a3.13,3.13,0,0,0,2-.35,11.89,11.89,0,0,0,3.89-2.72c.12-.13.19-.3,0-.44a1.22,1.22,0,0,0-.75-.12,3.56,3.56,0,0,0-1.13.24,2.43,2.43,0,0,0-.81.47Z" transform="translate(1.65 0.78)"/><path class="cls-2" d="M255.66,175.8a6,6,0,0,1-.84,1.48l.12-.15a6.62,6.62,0,0,1-1,1l-.08.06.12-.1a.83.83,0,0,1-.16.12l-.29.2c-.1.07-.48.26-.07.05l-.31.16c-.17.08-.52.26-.59.46s.08.29.24.33a2.19,2.19,0,0,0,.92,0,4.61,4.61,0,0,0,1.11-.34,7.17,7.17,0,0,0,3.66-3.75c.07-.19-.09-.28-.25-.33a2.2,2.2,0,0,0-.92,0,3.82,3.82,0,0,0-1.1.35c-.2.1-.51.24-.59.46Z" transform="translate(1.65 0.78)"/><path class="cls-3" d="M545.64,548.78c0,16.07-6.5,49.54-16.42,61.69-1.58,1.93-13.78,1.5-16.79,1.5-10.34,0-28.27,1.75-27.18-1,5.07-12.6,18.21-26.64,17.36-65.45-.58-26.74,9.64-48.43,21.54-48.43S545.64,522,545.64,548.78Z" transform="translate(1.65 0.78)"/><path class="cls-3" d="M732.58,550.27c0,11.92,18.53,59.68,18.53,59.68s7.91,2.57-21.63,2c-6.69,0-25.44.52-23.6-2-1.33-9.13-18.07-45.55-18.07-59.68,0-26.75,10-48.43,22.39-48.43S732.58,523.52,732.58,550.27Z" transform="translate(1.65 0.78)"/><path class="cls-2" d="M252.54,175.7l-.46.66a1.49,1.49,0,0,0-.15.2c0-.06.13-.16,0,0l-.26.31a16.36,16.36,0,0,1-1.11,1.24c-.38.39-.78.75-1.19,1.11-.12.11.26-.21,0,0l-.16.12a3.92,3.92,0,0,1-.32.25c-.22.17-.45.34-.69.5-.43.3-.82,1-.2,1.33a2.14,2.14,0,0,0,2.07-.22,19.49,19.49,0,0,0,5.13-5.23.63.63,0,0,0,0-.71,1.21,1.21,0,0,0-.81-.34,2.15,2.15,0,0,0-1.9.85Z" transform="translate(1.65 0.78)"/><path class="cls-2" d="M258.42,175.51c-.25.35-.5.69-.76,1a2.43,2.43,0,0,1-.2.25c0,.05-.09.09-.11.14s.15-.17,0-.06l-.44.52c-.56.64-1.17,1.26-1.8,1.85a.62.62,0,0,0,.3,1.14,2.41,2.41,0,0,0,2-.55,26.17,26.17,0,0,0,3.63-4.17.55.55,0,0,0,0-.66,1.17,1.17,0,0,0-.8-.3,2.25,2.25,0,0,0-1.9.82Z" transform="translate(1.65 0.78)"/><path class="cls-2" d="M247.25,179.85c-.42.29-.85.55-1.3.8l-.18.09c.18-.09.19-.1,0,0l-.27.13-.7.31-.33.13c-.09,0-.54.16-.1,0-.23.07-.45.15-.68.21l-.69.18a1.42,1.42,0,0,1-.4.08c.23,0,.26,0,.09,0l-.2,0a2.82,2.82,0,0,0-1.09.37,1.25,1.25,0,0,0-.55.63c-.12.65.86.73,1.26.66a16.87,16.87,0,0,0,6.9-2.71,1.21,1.21,0,0,0,.55-.63.51.51,0,0,0-.31-.54,2.27,2.27,0,0,0-2.05.26Z" transform="translate(1.65 0.78)"/><path class="cls-2" d="M234.16,184.24a15.28,15.28,0,0,1-.89,1.37c-.16.22-.33.43-.5.64a3.88,3.88,0,0,1-.26.31,1.46,1.46,0,0,1-.16.19c.1-.07.09-.11,0,0a15.6,15.6,0,0,1-1.17,1.13l-.63.52-.16.12-.07,0h0l-.06.05-.2.14c-.21.14-.5.34-.55.61a.46.46,0,0,0,.3.52,2.31,2.31,0,0,0,2.05-.27,16.69,16.69,0,0,0,5-5.31.48.48,0,0,0,0-.6,1.1,1.1,0,0,0-.78-.26,2.8,2.8,0,0,0-1.14.23,1.66,1.66,0,0,0-.77.56Z" transform="translate(1.65 0.78)"/><path class="cls-2" d="M225.12,192.27l-3.73,2a1.13,1.13,0,0,0-.54.65.53.53,0,0,0,.31.56,2.29,2.29,0,0,0,2.06-.25l3.73-2.05a1.14,1.14,0,0,0,.54-.64.55.55,0,0,0-.31-.57,2.32,2.32,0,0,0-2.06.25Z" transform="translate(1.65 0.78)"/><path class="cls-2" d="M214.55,198.7l-4.73,2.68a1.58,1.58,0,0,0-.74.68.76.76,0,0,0,.06.81,1.67,1.67,0,0,0,2,.21l4.73-2.68a1.62,1.62,0,0,0,.74-.68.79.79,0,0,0-.06-.81,1.67,1.67,0,0,0-2-.21Z" transform="translate(1.65 0.78)"/><path class="cls-2" d="M215.71,199.43a1.18,1.18,0,0,1,.11.19l-.12-.25a1.85,1.85,0,0,1,.17.61l0-.27a1.76,1.76,0,0,1-.07.6l.09-.27a2.09,2.09,0,0,1-.19.4l.17-.26v0a.84.84,0,0,0-.22.4.67.67,0,0,0,0,.42,1,1,0,0,0,.61.59,1.91,1.91,0,0,0,1.11,0l.37-.14a1.69,1.69,0,0,0,.57-.42,4.43,4.43,0,0,0,.29-.46c0-.12.09-.24.13-.37a2.25,2.25,0,0,0,.11-.63,2.7,2.7,0,0,0-.09-.75,2.6,2.6,0,0,0-.1-.25,2.79,2.79,0,0,0-.24-.45.71.71,0,0,0-.35-.27,1.08,1.08,0,0,0-.47-.15,1.87,1.87,0,0,0-.58,0,1.63,1.63,0,0,0-.57.17,1.55,1.55,0,0,0-.74.69l-.08.28a.68.68,0,0,0,.14.53Z" transform="translate(1.65 0.78)"/><path class="cls-2" d="M207.85,203.8l-4.69,3a1,1,0,0,0-.13,1.57,1.88,1.88,0,0,0,2.08-.16l4.68-3a1,1,0,0,0,.14-1.57,1.9,1.9,0,0,0-2.08.16Z" transform="translate(1.65 0.78)"/><path class="cls-2" d="M212.73,203.17a2.25,2.25,0,0,1-.14.44l.1-.23a2.55,2.55,0,0,1-.39.63l.19-.22a2.52,2.52,0,0,1-.41.39l.26-.2a1.85,1.85,0,0,1-.33.21l.32-.17-.31.14.38-.13-.06,0a2.39,2.39,0,0,0-1,.5c-.15.14-.36.43-.28.66a.74.74,0,0,0,.58.44,2.09,2.09,0,0,0,1.08-.05A5,5,0,0,0,214,205a3.81,3.81,0,0,0,.76-.62,4,4,0,0,0,.55-.74,3.69,3.69,0,0,0,.31-.84.52.52,0,0,0-.3-.56,1.11,1.11,0,0,0-.44-.12,1.88,1.88,0,0,0-.53,0,2.68,2.68,0,0,0-1.09.38,1.17,1.17,0,0,0-.54.64Z" transform="translate(1.65 0.78)"/><path class="cls-2" d="M218.51,195.8a5.32,5.32,0,0,1-.51,2l.1-.21a4.8,4.8,0,0,1-.67,1l-.1.12s-.15.17,0,0l0,0a.57.57,0,0,1-.11.11,4.83,4.83,0,0,1-.49.41.67.67,0,0,0-.29.61c.06.23.35.35.56.38a2.75,2.75,0,0,0,2.05-.54,5.91,5.91,0,0,0,2.41-4.36.47.47,0,0,0-.29-.51,1.82,1.82,0,0,0-1-.09,2.81,2.81,0,0,0-1.1.37c-.19.13-.54.35-.55.6Z" transform="translate(1.65 0.78)"/><path class="cls-2" d="M213,202.09c-.28.19-.58.38-.88.56l-.24.13-.12.07.09,0-.43.22-.44.21-.25.11c.43-.2.11-.05,0,0l-.45.17-.26.09-.14,0,.19-.06a4.31,4.31,0,0,0-1,.41c-.1.07-.39.26-.34.44s.38.2.51.2a3.47,3.47,0,0,0,1.06-.14,18,18,0,0,0,4.9-2.3c.1-.07.39-.25.34-.43s-.39-.21-.51-.21a4.11,4.11,0,0,0-2.05.55Z" transform="translate(1.65 0.78)"/><path class="cls-2" d="M217.32,196.27a14.38,14.38,0,0,1-2,1.89l-.25.18-.15.12-.06,0c.12-.08-.06,0-.09.05l-.12.09-.29.19-.6.35-.3.17.07,0-.2.1c-.16.08-.52.23-.6.42s.08.25.23.28a2.54,2.54,0,0,0,.91-.05,4.32,4.32,0,0,0,1.11-.34,16.1,16.1,0,0,0,5-3.7c.1-.12.23-.24.07-.36a1.31,1.31,0,0,0-.73-.06,4.32,4.32,0,0,0-1.13.26,2,2,0,0,0-.82.41Z" transform="translate(1.65 0.78)"/><path class="cls-2" d="M225.31,191.25a7.38,7.38,0,0,1-1.05,1.18l.25-.23a7.16,7.16,0,0,1-1,.75,1,1,0,0,0-.34.35.7.7,0,0,0-.18.39.73.73,0,0,0,.34.69,1.55,1.55,0,0,0,1,.2l.39-.07a2.11,2.11,0,0,0,.7-.32,9.42,9.42,0,0,0,1.36-1.07,7.43,7.43,0,0,0,.94-1.08.75.75,0,0,0,.21-.39.55.55,0,0,0,0-.4.85.85,0,0,0-.6-.55,1.87,1.87,0,0,0-1.1,0l-.38.13a1.69,1.69,0,0,0-.57.42Z" transform="translate(1.65 0.78)"/><path class="cls-2" d="M229.57,189.66l-2.9,4a1,1,0,0,0-.23.83,1,1,0,0,0,.62.61,1.87,1.87,0,0,0,1.1,0,1.76,1.76,0,0,0,1-.57l2.9-4a1,1,0,0,0,.23-.83,1,1,0,0,0-.62-.6,1.88,1.88,0,0,0-1.1,0,1.84,1.84,0,0,0-1,.58Z" transform="translate(1.65 0.78)"/><path class="cls-2" d="M228.27,188.7l-2.24,3a.39.39,0,0,0,0,.53,1.19,1.19,0,0,0,.77.21,3.19,3.19,0,0,0,1.14-.24,1.81,1.81,0,0,0,.78-.53l2.25-3a.4.4,0,0,0,0-.54,1.16,1.16,0,0,0-.77-.2,3.12,3.12,0,0,0-1.13.23,2,2,0,0,0-.79.53Z" transform="translate(1.65 0.78)"/><path class="cls-2" d="M223.56,192.07c-.4.25-.82.49-1.24.71l-.17.09.07,0L222,193l-.65.3q-.65.27-1.29.51l.11,0-.18.06-.27.09-.74.21a2.37,2.37,0,0,0-1,.49.72.72,0,0,0-.29.63c.16.6,1.25.45,1.65.34a22.75,22.75,0,0,0,6-2.6,1.15,1.15,0,0,0,.55-.62.46.46,0,0,0-.3-.52,2.37,2.37,0,0,0-2.05.27Z" transform="translate(1.65 0.78)"/><path class="cls-2" d="M235.1,185.58a21,21,0,0,1-4.58,4.65c-.12.09-.2.24-.06.35a1.52,1.52,0,0,0,.73.06,4,4,0,0,0,1.94-.68A22.76,22.76,0,0,0,238,185c.28-.4-1.06-.24-1.15-.22a5.2,5.2,0,0,0-1.1.34,1.43,1.43,0,0,0-.61.42Z" transform="translate(1.65 0.78)"/><path class="cls-2" d="M239.39,182.91a4.59,4.59,0,0,1-.55,1.61l.11-.19a4.85,4.85,0,0,1-.83,1.08l.19-.19a4.17,4.17,0,0,1-.38.34l-.18.13c-.16.12.09-.07.12-.08a.91.91,0,0,0-.13.08c-.19.12-.5.31-.56.55a.37.37,0,0,0,.27.45,1.91,1.91,0,0,0,1,.05,3.1,3.1,0,0,0,1.1-.36,5.59,5.59,0,0,0,2.77-3.89c.09-.59-.84-.56-1.22-.5a3.11,3.11,0,0,0-1.1.37c-.19.11-.53.3-.56.55Z" transform="translate(1.65 0.78)"/><path class="cls-2" d="M244.88,180l-4.13,3.54a.78.78,0,0,0-.27.7.77.77,0,0,0,.59.47,2.34,2.34,0,0,0,2-.55l4.13-3.54a.78.78,0,0,0,.27-.7.79.79,0,0,0-.59-.47,2.37,2.37,0,0,0-2,.55Z" transform="translate(1.65 0.78)"/><path class="cls-2" d="M248.25,176.73l-3.51,5a1,1,0,0,0-.24.79.89.89,0,0,0,.6.56,2,2,0,0,0,1.1,0,1.83,1.83,0,0,0,1-.55l3.51-5a1,1,0,0,0,.24-.79.91.91,0,0,0-.6-.56,2,2,0,0,0-1.1,0,1.79,1.79,0,0,0-.95.55Z" transform="translate(1.65 0.78)"/><path class="cls-8" d="M748.08,445.24C739.37,366.18,689.35,313.51,614,313.51s-126.6,52.67-128.57,125c-2.73,99.76,53.49,116,128.86,116S756.57,522.41,748.08,445.24Z" transform="translate(1.65 0.78)"/><path class="cls-2" d="M250.64,176.54a14.49,14.49,0,0,0-3.29,4,.56.56,0,0,0,0,.66,1.15,1.15,0,0,0,.79.3,2.47,2.47,0,0,0,1.14-.22,1.58,1.58,0,0,0,.77-.6,13.68,13.68,0,0,1,1.34-2l-.19.23a14.26,14.26,0,0,1,1.77-1.79.72.72,0,0,0,.27-.68.75.75,0,0,0-.58-.46,2.44,2.44,0,0,0-2,.55Z" transform="translate(1.65 0.78)"/><path class="cls-2" d="M243.06,179.79a27.19,27.19,0,0,1-2.36,2.32l-.63.52-.14.11c.24-.21.07-.05,0,0l-.33.25c-.45.34-.92.66-1.39,1s-.84.93-.23,1.25a2.23,2.23,0,0,0,2.06-.24,26.36,26.36,0,0,0,5.36-4.58.79.79,0,0,0,.27-.69.77.77,0,0,0-.58-.45,2.29,2.29,0,0,0-2.05.55Z" transform="translate(1.65 0.78)"/><path class="cls-2" d="M235.42,184.69l-.06.08.18-.23a8.77,8.77,0,0,1-1.4,1.39l.26-.21a8.42,8.42,0,0,1-1.32.88l.32-.17-.08,0a1.84,1.84,0,0,0-.77.61.57.57,0,0,0,0,.67,1.12,1.12,0,0,0,.79.32,2.33,2.33,0,0,0,1.14-.22,11,11,0,0,0,1.11-.64c.36-.24.69-.5,1-.77a10.27,10.27,0,0,0,1.5-1.59.55.55,0,0,0,0-.67,1.13,1.13,0,0,0-.8-.32,2.5,2.5,0,0,0-1.14.22l-.32.18a1.29,1.29,0,0,0-.44.43Z" transform="translate(1.65 0.78)"/><path class="cls-2" d="M234.72,187.52l-.2.18-.09.09c-.09.07-.07.05,0,0,0,.06-.15.12-.2.16l-.21.16-.44.29c-.08,0-.36.17,0,0l-.23.13-.47.23c.23-.1.28-.12.15-.07l-.12.05-.25.1-.25.08.19-.06-.12,0c-.15,0-.77.18-.19,0a4.3,4.3,0,0,0-1.1.36c-.17.08-.51.27-.58.48-.18.53,1,.41,1.18.37a11.37,11.37,0,0,0,5.54-2.76.28.28,0,0,0,0-.44,1.31,1.31,0,0,0-.75-.13,3.21,3.21,0,0,0-1.93.72Z" transform="translate(1.65 0.78)"/><path class="cls-2" d="M242.35,184c-.12.17-.25.34-.38.5l-.19.22c-.09.1.17-.18,0-.05l-.11.12a9,9,0,0,1-.91.83l-.1.07.08-.06-.26.18-.51.32-.14.07c-.21.11.09,0,.13-.06a1.3,1.3,0,0,1-.29.14l-.58.24a1.71,1.71,0,0,0-.78.57.47.47,0,0,0,0,.6c.48.47,1.38.24,1.92,0a10.28,10.28,0,0,0,4.77-3.66.48.48,0,0,0,0-.61,1.15,1.15,0,0,0-.78-.26,2.4,2.4,0,0,0-1.91.8Z" transform="translate(1.65 0.78)"/><path class="cls-2" d="M247.48,181.76a10.07,10.07,0,0,1-1.69,1.29l.32-.19c-.31.19-.64.36-1,.52a1.57,1.57,0,0,0-.74.7.82.82,0,0,0,.06.83,1.67,1.67,0,0,0,2,.23,11.4,11.4,0,0,0,3-2,1.29,1.29,0,0,0,.5-.79.83.83,0,0,0-.35-.75,1.52,1.52,0,0,0-1-.23l-.39.06a1.94,1.94,0,0,0-.69.34Z" transform="translate(1.65 0.78)"/><path class="cls-2" d="M248.56,181.56l-.79.79a.7.7,0,0,0-.23.36.48.48,0,0,0,0,.37.47.47,0,0,0,.21.3.79.79,0,0,0,.38.21l.33,0a2.16,2.16,0,0,0,.76-.07l.38-.14a1.91,1.91,0,0,0,.58-.39l.79-.79a.83.83,0,0,0,.22-.37.51.51,0,0,0-.18-.67.75.75,0,0,0-.37-.2l-.33-.06a2.22,2.22,0,0,0-.77.08l-.37.13a1.94,1.94,0,0,0-.58.4Z" transform="translate(1.65 0.78)"/><path class="cls-2" d="M253.16,179c-.06.06-.11.13-.16.19l.18-.22a12.2,12.2,0,0,1-1.78,1.74l.26-.21c-.32.25-.65.48-1,.69a1.17,1.17,0,0,0-.54.66.54.54,0,0,0,.31.57,2.26,2.26,0,0,0,2.06-.24,13.38,13.38,0,0,0,3.36-3,.53.53,0,0,0,0-.65,1.15,1.15,0,0,0-.79-.3,2.5,2.5,0,0,0-1.14.22l-.32.17a1.29,1.29,0,0,0-.44.43Z" transform="translate(1.65 0.78)"/><path class="cls-6" d="M210.18,213c0-2.2,13.4-9.12,22-9.12s14.89,4.11,14.89,6.31-11.94-1.47-20.59-1.47S210.18,215.24,210.18,213Z" transform="translate(1.65 0.78)"/><path class="cls-6" d="M306.19,212.23c0-2.35-8.45-7.72-18.86-7.72s-18.86,3-18.86,5.3,8.9,1.49,19.26.42C302.52,208.72,306.19,214.58,306.19,212.23Z" transform="translate(1.65 0.78)"/><path class="cls-3" d="M332.9,254c0-12.69,6.16-24-.76-24S316,249.39,316,262.08s-7.05,21.16-.8,18.19C322,277,332.9,266.71,332.9,254Z" transform="translate(1.65 0.78)"/><path class="cls-3" d="M188.64,259.53c0-12.42-5.56-23,.85-23s13.37,19,15.41,30.87c2.1,12.24,5.56,15.83,1.58,13.52C200.93,277.66,188.64,272,188.64,259.53Z" transform="translate(1.65 0.78)"/><path class="cls-2" d="M318.13,261.64a20,20,0,0,0,5.18-1.11,4.68,4.68,0,0,0,3.14-3.08,16.13,16.13,0,0,0,.37-4.75,25.39,25.39,0,0,0-.68-5.21c-.24-1-3.15-.26-2.9.78a23.61,23.61,0,0,1,.51,8.5c-.13,1-.36,2.08-1.41,2.49a14.31,14.31,0,0,1-3.82.76c-.52,0-1.54.37-1.64,1s.85.66,1.25.63Z" transform="translate(1.65 0.78)"/><path class="cls-2" d="M329.59,234a22.42,22.42,0,0,0-.52,12.47c.33,1.32,3.23.55,2.9-.78a20.55,20.55,0,0,1,.39-11.37c.52-1.58-2.37-1.53-2.77-.32Z" transform="translate(1.65 0.78)"/><path class="cls-2" d="M202.93,266.08a11.46,11.46,0,0,1-6.93-5.19,9.86,9.86,0,0,1-.36-9.27c.64-1.24-2.25-1-2.7-.08a10.77,10.77,0,0,0,.25,10.29,12.92,12.92,0,0,0,8,5.86,2.4,2.4,0,0,0,2.05-.55c.45-.44.31-.9-.29-1.06Z" transform="translate(1.65 0.78)"/><path class="cls-2" d="M189.4,241.42a9.11,9.11,0,0,1,1.3,7.23c-.12.51.92.35,1.17.3a3.92,3.92,0,0,0,1.1-.35c.18-.09.54-.24.59-.45a9.32,9.32,0,0,0-1.26-7.5c-.48-.73-3.14.41-2.9.77Z" transform="translate(1.65 0.78)"/><path class="cls-2" d="M306.79,191.93c-.35,8.2,4.31,15.48,5.9,23.33,1.67,8.28,1.56,17,1.43,25.45q-.12,7.53-.74,15a2.5,2.5,0,0,0,5,0,230.42,230.42,0,0,0,.63-26.67A106.67,106.67,0,0,0,318,216.47a60.87,60.87,0,0,0-3.27-11.85c-1.52-4.1-3.09-8.25-2.9-12.69.14-3.22-4.86-3.21-5,0Z" transform="translate(1.65 0.78)"/><path class="cls-2" d="M317.59,242.79A25.91,25.91,0,0,0,313.8,256a2.52,2.52,0,0,0,2.5,2.5,2.55,2.55,0,0,0,2.5-2.5c0-.52,0-1,.06-1.57,0-.25,0-.49.07-.73s0-.28.05-.42c0,.32,0,.33,0,0a25.29,25.29,0,0,1,.63-2.87c.14-.47.29-.94.46-1.4.09-.27.19-.53.29-.79.2-.5-.17.36.08-.17a26.48,26.48,0,0,1,1.47-2.79,2.52,2.52,0,0,0-.9-3.42,2.56,2.56,0,0,0-3.42.9Z" transform="translate(1.65 0.78)"/><path class="cls-2" d="M319,235.49,316.7,240a2.62,2.62,0,0,0-.25,1.92,2.58,2.58,0,0,0,1.15,1.5,2.51,2.51,0,0,0,3.42-.9l2.34-4.5a2.64,2.64,0,0,0,.25-1.93,2.53,2.53,0,0,0-1.15-1.49,2.5,2.5,0,0,0-3.42.9Z" transform="translate(1.65 0.78)"/><path class="cls-2" d="M319.84,235.56a58.39,58.39,0,0,1-2.53,7.38l.25-.6c0,.09-.07.18-.11.26a2.7,2.7,0,0,0-.25,1.93,2.51,2.51,0,0,0,1.14,1.49,2.56,2.56,0,0,0,1.93.26,2.41,2.41,0,0,0,1.49-1.15,62,62,0,0,0,2.9-8.24,2.5,2.5,0,1,0-4.82-1.33Z" transform="translate(1.65 0.78)"/><path class="cls-2" d="M195.84,242.14c.66,3,.29,6.14.82,9.17a31.67,31.67,0,0,0,3.25,8.41c.37.73,3.15-.28,2.9-.78a31.2,31.2,0,0,1-3.25-8.41c-.54-3-.16-6.14-.82-9.16-.15-.66-3.06,0-2.9.77Z" transform="translate(1.65 0.78)"/><path class="cls-2" d="M201.4,260.1c.53,0,1.65-.21,1.94-.72s-.27-.6-.72-.6-1.64.21-1.93.72.26.6.71.6Z" transform="translate(1.65 0.78)"/><path class="cls-2" d="M198.71,252v.27a.35.35,0,0,0,.06.31.38.38,0,0,0,.25.23,1.06,1.06,0,0,0,.43.12,1.57,1.57,0,0,0,.53,0l.39-.08a2.28,2.28,0,0,0,.7-.3l.26-.19a.92.92,0,0,0,.29-.44v-.26a.34.34,0,0,0-.06-.31.42.42,0,0,0-.25-.24,1.05,1.05,0,0,0-.43-.11,1.57,1.57,0,0,0-.53,0L200,251a2.9,2.9,0,0,0-.7.3l-.26.2a.89.89,0,0,0-.29.43Z" transform="translate(1.65 0.78)"/><path class="cls-2" d="M199,255a3.62,3.62,0,0,0,2-.55c.38-.3.48-.59-.15-.59a3.6,3.6,0,0,0-2,.55c-.38.3-.47.59.16.59Z" transform="translate(1.65 0.78)"/><path class="cls-2" d="M201.48,260.9c.64,0,1.59-.18,1.9-.84s-.25-1-.84-1-1.59.19-1.9.84.25,1,.84,1Z" transform="translate(1.65 0.78)"/><path class="cls-2" d="M199.23,252.94a3.34,3.34,0,0,0,2.05-.55c.36-.31.47-.69-.18-.69a3.34,3.34,0,0,0-2,.55c-.36.31-.47.69.18.69Z" transform="translate(1.65 0.78)"/><path class="cls-2" d="M199.23,255a3.33,3.33,0,0,0,2.05-.54c.36-.31.47-.69-.18-.69a3.34,3.34,0,0,0-2,.55c-.36.31-.47.68.18.68Z" transform="translate(1.65 0.78)"/><path class="cls-2" d="M200.16,257c.65,0,1.59-.18,1.9-.85s-.24-1.05-.84-1.05-1.59.19-1.9.85.24,1,.84,1Z" transform="translate(1.65 0.78)"/><path class="cls-2" d="M200.61,258c.52,0,1.64-.21,1.93-.71s-.27-.58-.71-.58-1.64.22-1.93.72.27.57.71.57Z" transform="translate(1.65 0.78)"/><path class="cls-2" d="M200.29,254.93c1.64,0,2.25-2.06.27-2.06-1.63,0-2.24,2.06-.27,2.06Z" transform="translate(1.65 0.78)"/><path class="cls-2" d="M199,252.93a3.35,3.35,0,0,0,2.05-.54c.36-.31.47-.69-.19-.69a3.33,3.33,0,0,0-2,.55c-.37.31-.47.68.18.68Z" transform="translate(1.65 0.78)"/><path class="cls-2" d="M199.86,255.51c.58,0,1.63-.2,1.92-.79s-.24-.84-.79-.84-1.62.19-1.91.79.24.84.78.84Z" transform="translate(1.65 0.78)"/><path class="cls-2" d="M254.61,177a3.6,3.6,0,0,0,2.05-.55c.37-.3.47-.62-.17-.62a3.52,3.52,0,0,0-2.05.55c-.37.3-.47.62.17.62Z" transform="translate(1.65 0.78)"/><path class="cls-2" d="M255.47,177.55a2.94,2.94,0,0,0,1.08-1.26,3,3,0,0,0,.23-1.55,2.51,2.51,0,0,0-1.79-2.15,4,4,0,0,0-2.09,0,4.11,4.11,0,0,0-1.62.8,3.16,3.16,0,0,0-1.06,1.58,2.19,2.19,0,0,0,.13,1.45,2.92,2.92,0,0,0,1.25,1.39,3.61,3.61,0,0,0,2.62.33,1.92,1.92,0,0,0,.95-.56.88.88,0,0,0,.25-.78c-.24-.69-1.13-.7-1.71-.57l-.09,0,.39-.07-.27,0h.37a1.47,1.47,0,0,1-.36,0l.33.07a1.69,1.69,0,0,1-.43-.15l.27.14a3.39,3.39,0,0,1-.5-.34l.21.18a2.07,2.07,0,0,1-.48-.62l.12.24a1.74,1.74,0,0,1-.19-.7v.26a1.76,1.76,0,0,1,.07-.56l-.08.26a1.9,1.9,0,0,1,.21-.43l-.18.26a2.28,2.28,0,0,1,.29-.33l-.25.22a2.36,2.36,0,0,1,.36-.26l-.32.19a2.48,2.48,0,0,1,.37-.17l-.38.14.35-.1-.39.07.36,0h-.37a1.34,1.34,0,0,1,.35,0l-.33-.07a1.29,1.29,0,0,1,.38.12l-.28-.13a1.56,1.56,0,0,1,.4.27l-.21-.19a2,2,0,0,1,.36.47l-.12-.24a2.31,2.31,0,0,1,.21.81l0-.27a2.32,2.32,0,0,1-.09.79l.08-.26a2.23,2.23,0,0,1-.24.49l.17-.25a1.48,1.48,0,0,1-.26.3l.26-.23-.23.17a1.21,1.21,0,0,0-.51.75.73.73,0,0,0,.34.69,2,2,0,0,0,2.08-.19Z" transform="translate(1.65 0.78)"/><path class="cls-2" d="M247.75,178.73l-2.11.27a5.43,5.43,0,0,0-1.13.25,4,4,0,0,0-.47.21,1.33,1.33,0,0,0-.34.22c-.1.09-.24.25-.06.36l.17.06a2.09,2.09,0,0,0,.56,0l2.11-.27a5,5,0,0,0,1.13-.26,2.76,2.76,0,0,0,.47-.2,1.52,1.52,0,0,0,.34-.22c.09-.09.23-.25.06-.36l-.17-.06a2.1,2.1,0,0,0-.56,0Z" transform="translate(1.65 0.78)"/><path class="cls-2" d="M240.64,181.62l-2.11.28a2.27,2.27,0,0,0-1.09.41,1.2,1.2,0,0,0-.5.78.83.83,0,0,0,.36.75,1.56,1.56,0,0,0,1,.24l2.11-.29a2.29,2.29,0,0,0,1.08-.4,1.23,1.23,0,0,0,.51-.79.83.83,0,0,0-.36-.75,1.49,1.49,0,0,0-1-.23Z" transform="translate(1.65 0.78)"/><path class="cls-2" d="M263.15,172.59l-3.1,1a1.93,1.93,0,0,0-.95.57,1,1,0,0,0-.23.85,1.38,1.38,0,0,0,1.73.64l3.1-1a1.88,1.88,0,0,0,.95-.58,1,1,0,0,0,.23-.84,1.37,1.37,0,0,0-1.73-.64Z" transform="translate(1.65 0.78)"/><path class="cls-2" d="M246.07,178.5l-1.58.28a4.68,4.68,0,0,0-1.1.34,1.28,1.28,0,0,0-.38.21.55.55,0,0,0-.23.2l0,.11a.27.27,0,0,0,.25.14,2.53,2.53,0,0,0,.91-.06l1.58-.28a4.9,4.9,0,0,0,1.11-.34,2,2,0,0,0,.38-.2.7.7,0,0,0,.22-.2l0-.12a.26.26,0,0,0-.24-.14,2.86,2.86,0,0,0-.92.06Z" transform="translate(1.65 0.78)"/><path class="cls-2" d="M231.28,187.22l-.46.25.13-.06-.14.06-.21.08c-.15,0-.09,0,.17-.05l-.15,0-.21.06-.15,0c.27,0,.33-.07.17,0l-.26,0c-.12,0-.39,0,0,0a1.15,1.15,0,0,0-.26,0h-.26c-.25,0,.29,0,0,0l-.52-.07a1.14,1.14,0,0,1-.25-.06c.25.12,0,0-.1,0a2.66,2.66,0,0,0-2,.31c-.21.13-.5.29-.57.55a.37.37,0,0,0,.27.44,8.31,8.31,0,0,0,6.58-.89c.19-.11.5-.31.56-.55a.36.36,0,0,0-.27-.44,1.87,1.87,0,0,0-.94,0,3,3,0,0,0-1.1.36Z" transform="translate(1.65 0.78)"/><path class="cls-2" d="M225.15,189.78a1.45,1.45,0,0,1-.22.61l.11-.17a1.69,1.69,0,0,1-.28.32l.2-.18a1.12,1.12,0,0,1-.22.16l.27-.16-.15.08.33-.15-.14.06.38-.13-.13,0,.39-.09a.8.8,0,0,1-.15,0l.36,0h-.08a3.41,3.41,0,0,0-1.13.24,2,2,0,0,0-.46.23,1.42,1.42,0,0,0-.34.25l-.11.18a.25.25,0,0,0,.08.29l.18.09a1.85,1.85,0,0,0,.57.06,6.44,6.44,0,0,0,1-.15,4.48,4.48,0,0,0,.62-.2,5.19,5.19,0,0,0,.81-.42,3,3,0,0,0,.4-.33,2.23,2.23,0,0,0,.44-.57,1.52,1.52,0,0,0,.16-.51.19.19,0,0,0,0-.23.3.3,0,0,0-.23-.16,1.13,1.13,0,0,0-.41-.05,2.24,2.24,0,0,0-.52,0,3.47,3.47,0,0,0-1.1.36l-.27.16a.84.84,0,0,0-.31.34Z" transform="translate(1.65 0.78)"/><path class="cls-2" d="M281,173.5c1.68,0,2.21-2.19.24-2.19-1.67,0-2.2,2.19-.24,2.19Z" transform="translate(1.65 0.78)"/><path class="cls-2" d="M279.93,174.32a3.47,3.47,0,0,0,2.05-.54c.37-.31.47-.65-.17-.65a3.47,3.47,0,0,0-2.05.54c-.37.31-.47.65.17.65Z" transform="translate(1.65 0.78)"/><path class="cls-2" d="M262.55,177.46c1.69,0,2.2-2.2.24-2.2-1.69,0-2.2,2.2-.24,2.2Z" transform="translate(1.65 0.78)"/><path class="cls-2" d="M277.31,176.37c1.65,0,2.23-2.12.26-2.12-1.65,0-2.23,2.12-.26,2.12Z" transform="translate(1.65 0.78)"/><path class="cls-2" d="M204.57,204.41l-1.33,1.05a.62.62,0,0,0-.24.29.36.36,0,0,0-.06.29.39.39,0,0,0,.2.22.71.71,0,0,0,.35.13,3,3,0,0,0,2-.55l1.32-1.05a.72.72,0,0,0,.25-.3.33.33,0,0,0-.14-.5.63.63,0,0,0-.36-.13,2.42,2.42,0,0,0-1.07.08,2.65,2.65,0,0,0-1,.47Z" transform="translate(1.65 0.78)"/><path class="cls-2" d="M207.4,201.92l-1.51,2.16c-.11.17.13.24.22.26a1.88,1.88,0,0,0,.41,0,3,3,0,0,0,.51-.07,4.25,4.25,0,0,0,1.1-.34,1.41,1.41,0,0,0,.61-.4l1.51-2.16c.11-.17-.13-.24-.23-.26a1.34,1.34,0,0,0-.4,0,2.22,2.22,0,0,0-.51.06,4.75,4.75,0,0,0-1.11.34,1.44,1.44,0,0,0-.6.4Z" transform="translate(1.65 0.78)"/><path class="cls-2" d="M207.71,202.23l-.53.53a.7.7,0,0,0-.24.32.38.38,0,0,0,.15.55.69.69,0,0,0,.36.16l.33,0a2.7,2.7,0,0,0,.75-.09l.38-.13a2.08,2.08,0,0,0,.59-.36l.53-.53a.73.73,0,0,0,.24-.31.4.4,0,0,0,0-.32.37.37,0,0,0-.2-.24.64.64,0,0,0-.36-.15l-.33,0a2.78,2.78,0,0,0-.76.1l-.37.13a1.85,1.85,0,0,0-.59.35Z" transform="translate(1.65 0.78)"/><path class="cls-2" d="M209.07,201.89l-2.39,1.56c-.19.13-.5.31-.56.56a.37.37,0,0,0,.27.45,1.91,1.91,0,0,0,1,.06,2.85,2.85,0,0,0,1.1-.36l2.38-1.56c.2-.13.5-.31.57-.56a.4.4,0,0,0-.28-.46,1.87,1.87,0,0,0-.94-.06,2.76,2.76,0,0,0-1.1.37Z" transform="translate(1.65 0.78)"/><path class="cls-2" d="M210.2,201.47l-2.14,2.08a.36.36,0,0,0,0,.51.55.55,0,0,0,.32.14,1.09,1.09,0,0,0,.44.05,3.18,3.18,0,0,0,1.14-.23l.33-.16a1.6,1.6,0,0,0,.46-.36l2.14-2.08a.36.36,0,0,0,0-.51.58.58,0,0,0-.32-.14,1.12,1.12,0,0,0-.45-.05A3.13,3.13,0,0,0,211,201l-.33.15a1.47,1.47,0,0,0-.46.36Z" transform="translate(1.65 0.78)"/><path class="cls-9" d="M347.58,612.65,110.76,611l19-133.45L137,363.43l52.46-19.86s12.69-9.49,10.41-3.16,11.1,22.08,12.92,38C215.19,399,347.58,612.65,347.58,612.65Z" transform="translate(1.65 0.78)"/><polygon class="cls-9" points="364.01 612.75 245.85 612.45 256.16 458.91 295.61 402.9 328.01 340.06 385.11 381.28 370.34 506.81 364.01 612.75"/><circle class="cls-6" cx="255.13" cy="486.66" r="7.8"/><circle class="cls-6" cx="250.35" cy="562.64" r="7.3"/><polygon class="cls-10" points="279.22 426.17 256.21 457.3 236.16 423.8 264.22 381.68 279.22 426.17"/><path class="cls-10" d="M268.44,398.29,252,396.78a169.13,169.13,0,0,0-14.64-27.1l5.54-6.25c7.72-7.63,13.91-10.3,18.39-7.4,3.21-1.41,7.62,1.82,13.06,9.1a31,31,0,0,1,4,17.34A41.2,41.2,0,0,0,268.44,398.29Z" transform="translate(1.65 0.78)"/><path class="cls-11" d="M254.07,395.72a29.23,29.23,0,0,0,.26,3.62c0,.27.38.48.61.55a2,2,0,0,0,1.1,0c.6-.18,1.29-.61,1.19-1.33s-.16-1.4-.2-2.1v.26c0-.41,0-.83,0-1.25a.74.74,0,0,0-.34-.69,1.61,1.61,0,0,0-1-.2,2.13,2.13,0,0,0-1.09.4c-.22.17-.52.44-.52.74Z" transform="translate(1.65 0.78)"/><path class="cls-11" d="M253.12,396.18a5.19,5.19,0,0,0,.17,2.18c.05.18.38.21.51.21a3.19,3.19,0,0,0,1.06-.14,3,3,0,0,0,1-.41c.12-.08.39-.25.34-.43a5.22,5.22,0,0,1-.17-2.19c0-.17-.47-.2-.51-.21a4.11,4.11,0,0,0-2,.55l-.2.16a.31.31,0,0,0-.14.28Z" transform="translate(1.65 0.78)"/><path class="cls-11" d="M252.68,395.6a4.92,4.92,0,0,1,.25,3.27l2.88-.63a9.27,9.27,0,0,1-.17-3.15c0-.2,0-.27-.24-.34a2.24,2.24,0,0,0-.93,0,3.82,3.82,0,0,0-1.1.35c-.19.1-.53.25-.59.47-.15.55-.3,1.1-.43,1.65l-.18.73a1.78,1.78,0,0,0-.1.79c.12.52.81.6,1.24.61a7.76,7.76,0,0,0,1.74-.13,7.64,7.64,0,0,0,5.29-3.33l-2.88.63a3.07,3.07,0,0,1-.34,1.88l2.89-.63a6,6,0,0,1-.45-3.38l-2.88.63v5.5c0,.18.44.23.52.23a3.15,3.15,0,0,0,1.06-.13,3,3,0,0,0,1-.42c.16-.11.33-.23.33-.46v-5.5c0-.18-.44-.22-.52-.23a3.54,3.54,0,0,0-.86.09,3.62,3.62,0,0,0-.91.31c-.18.09-.55.25-.59.47a6.5,6.5,0,0,0,.41,3.67c.18.41,1.09.21,1.38.14a4,4,0,0,0,.91-.3,1.33,1.33,0,0,0,.59-.48,3.7,3.7,0,0,0,.37-2.17c0-.18-.41-.22-.52-.23a3.22,3.22,0,0,0-.87.09,2.31,2.31,0,0,0-1.49.77,3.84,3.84,0,0,1-.55.74c-.11.12-.23.23-.35.34s-.22.19-.12.11-.11.07-.13.09l-.21.14-.1.07.06,0c-.12.1-.32.12-.44.22l.18-.08-.15.06c-.12,0-.38.08.07,0l-.24.06c-.27.08.36-.06.07,0l-.25,0c.37-.09.15,0,0,0h-.26c-.19,0,.13.08,0,0,.11.05-.05,0-.07-.05a.53.53,0,0,1,0-.39c.2-.87.42-1.73.65-2.59l-2.86.49a10,10,0,0,0,.13,3.44c0,.18.39.22.52.23a2.87,2.87,0,0,0,.87-.09,3.66,3.66,0,0,0,.9-.3c.19-.1.53-.25.59-.47a5.31,5.31,0,0,0-.22-3.56c-.08-.19-.34-.22-.51-.23a3,3,0,0,0-1.07.13,3.14,3.14,0,0,0-1,.41c-.12.09-.41.28-.33.46Z" transform="translate(1.65 0.78)"/><path class="cls-11" d="M258.18,394.8l.83,6.33c0,.24.38.39.57.44a2.24,2.24,0,0,0,1.09,0c.51-.15,1.32-.52,1.24-1.18l-.83-6.32c0-.25-.39-.39-.58-.44a2.19,2.19,0,0,0-1.08,0c-.52.15-1.33.51-1.24,1.17Z" transform="translate(1.65 0.78)"/><path class="cls-11" d="M259.83,395.79a15.31,15.31,0,0,1,.78,4.35c0,.21.41.32.54.34a2.62,2.62,0,0,0,1.08-.08c.48-.14,1.29-.43,1.27-1a15,15,0,0,0-.77-4.35c-.08-.22-.35-.31-.55-.35a2.47,2.47,0,0,0-1.08.09,2.55,2.55,0,0,0-1,.46c-.15.14-.38.35-.3.58Z" transform="translate(1.65 0.78)"/><path class="cls-11" d="M261.3,395l.21,4.75c0,.19.43.24.52.25a3.24,3.24,0,0,0,1.07-.13,2.94,2.94,0,0,0,1-.42c.16-.12.34-.25.33-.47l-.22-4.76c0-.18-.42-.23-.52-.24a2.92,2.92,0,0,0-1.06.13,3,3,0,0,0-1,.42c-.16.12-.33.25-.32.47Z" transform="translate(1.65 0.78)"/><path class="cls-11" d="M262.19,396.18c.11.87.19,1.73.22,2.6v-.24c0,.72,0,1.43,0,2.15s.75.84,1.29.77a2.35,2.35,0,0,0,1.09-.39c.22-.15.52-.39.53-.68a30.88,30.88,0,0,0-.22-5c0-.25-.38-.42-.58-.48a2,2,0,0,0-1.09,0c-.56.16-1.31.55-1.23,1.23Z" transform="translate(1.65 0.78)"/><path class="cls-11" d="M262.46,396.56a13.49,13.49,0,0,1,.41,3.41v-.2q0,.68-.09,1.35c-.07.62.82.65,1.24.58a2.71,2.71,0,0,0,1.1-.37c.2-.13.52-.33.55-.59a13.53,13.53,0,0,0-.31-4.95c-.06-.24-.36-.34-.56-.38a2.48,2.48,0,0,0-1.08.07,2.33,2.33,0,0,0-1,.48c-.16.15-.35.35-.29.6Z" transform="translate(1.65 0.78)"/><path class="cls-11" d="M263.68,395.56a10.58,10.58,0,0,1,.36,3v-.19a11,11,0,0,1-.29,2.2c-.15.61.87.61,1.23.55a2.85,2.85,0,0,0,1.1-.36,1.17,1.17,0,0,0,.56-.58,10.88,10.88,0,0,0-.07-5.35c-.06-.23-.35-.33-.55-.37a2.62,2.62,0,0,0-1.08.08,2.44,2.44,0,0,0-1,.47c-.16.15-.36.35-.3.59Z" transform="translate(1.65 0.78)"/><path class="cls-11" d="M264.37,396.38a13.21,13.21,0,0,1,.22,1.88V398a10.92,10.92,0,0,1,0,1.28.67.67,0,0,0,.33.64,1.55,1.55,0,0,0,1,.17,2.27,2.27,0,0,0,1.1-.38,1.13,1.13,0,0,0,.52-.71,14,14,0,0,0-.22-3.41c0-.26-.37-.43-.59-.5a2.16,2.16,0,0,0-1.1,0,2.06,2.06,0,0,0-.95.54.81.81,0,0,0-.26.73Z" transform="translate(1.65 0.78)"/><path class="cls-11" d="M264.37,396.11a21.62,21.62,0,0,0-.17,4.62c0,.27.4.49.6.56a1.87,1.87,0,0,0,1.1,0,1.85,1.85,0,0,0,1-.56l.18-.25a.78.78,0,0,0,.07-.54v-.08l0,.27a20.32,20.32,0,0,1,.19-4.27c.11-.7-.79-1-1.33-.91s-1.49.43-1.6,1.15Z" transform="translate(1.65 0.78)"/><path class="cls-11" d="M264.63,396.18l-.27,6.13c0,.59,2.86.18,2.9-.78l.26-6.13c0-.59-2.85-.18-2.89.78Z" transform="translate(1.65 0.78)"/><path class="cls-11" d="M264.57,396.49l.24,4.54a.85.85,0,0,0,.36.76,1.56,1.56,0,0,0,1,.24,2.05,2.05,0,0,0,1.09-.41c.22-.18.52-.48.5-.79l-.24-4.55a.88.88,0,0,0-.36-.75,1.58,1.58,0,0,0-1-.24,2,2,0,0,0-1.09.4c-.22.19-.52.48-.5.8Z" transform="translate(1.65 0.78)"/><path class="cls-11" d="M265.07,396.57a16,16,0,0,1-.57,5.5.51.51,0,0,0,.3.55,1.77,1.77,0,0,0,1,.12c.59-.09,1.46-.36,1.64-1a17.24,17.24,0,0,0,.57-5.94c0-.24-.39-.38-.57-.42a2.32,2.32,0,0,0-1.08.05c-.53.15-1.29.49-1.25,1.15Z" transform="translate(1.65 0.78)"/><ellipse class="cls-12" cx="530.86" cy="503.55" rx="20.27" ry="16.89"/><path class="cls-3" d="M733.77,464.14c-7.57-75.26-40.41-115.43-120.66-115.26-62.73.14-116,43.24-118.75,115.26-2.33,62.1,46.52,90.42,118.75,90.42S740,526,733.77,464.14Z" transform="translate(1.65 0.78)"/><path class="cls-13" d="M696.31,512.48c0-16.82-22.66-30.4-36.58-44.16-14.58-14.42-23.78-28.64-45.47-28.64-23.79,0-33,16.2-48,28.64-15.25,12.61-36.19,21.57-36.19,38.9,0,34.43,36.31,47.34,84.21,47.34S696.31,546.91,696.31,512.48Z" transform="translate(1.65 0.78)"/><path class="cls-13" d="M584.61,426.16c0-11.49-3.84-16.53-31.34-10.26-20.91,4.76-31.35,4.86-31.35,20.53,0,11.49,19.23,19.28,35.13,15.29C581.37,445.62,584.61,437.66,584.61,426.16Z" transform="translate(1.65 0.78)"/><path class="cls-13" d="M704,433.74c0-9.7-12.43-17.3-31.89-19-16.5-1.47-30.25-9.07-30.25,10.92,0,9.7,0,21.62,27.56,27.16C691,457.1,704,443.44,704,433.74Z" transform="translate(1.65 0.78)"/><ellipse class="cls-6" cx="614.75" cy="457.3" rx="18.91" ry="7.91"/><path class="cls-5" d="M633.06,388c-4.12,5.68-.81,14.21,5,18.19s13.1,4.66,20.06,5.46c21.18,2.42,42.84,7.2,60,19.82" transform="translate(1.65 0.78)"/><path class="cls-5" d="M599.47,389.22c4.35,3.87,2.77,11.54-1.64,15.34s-10.52,4.8-16.29,5.63c-13.33,1.91-26.71,3.77-39.71,7.32-11.39,3.1-19.23,7.5-29.64,13.07" transform="translate(1.65 0.78)"/><path class="cls-5" d="M621.86,379.42a34.38,34.38,0,0,0-4.59,13.94,9.44,9.44,0,0,0,0,2.49,11.48,11.48,0,0,0,1.68,3.77,89.91,89.91,0,0,1,5,9.83" transform="translate(1.65 0.78)"/><path class="cls-5" d="M604.35,380.92a57.14,57.14,0,0,1,4,15.26,10.74,10.74,0,0,1-.47,5.69,11.59,11.59,0,0,1-2,2.73l-5.14,5.81" transform="translate(1.65 0.78)"/><path class="cls-5" d="M604.05,417.29a31.18,31.18,0,0,0,8.87,2.42c3.07.22,6.36-.59,8.47-2.83" transform="translate(1.65 0.78)"/><path class="cls-5" d="M631.68,428.67a13.69,13.69,0,0,0-6.94-.56,7.4,7.4,0,0,0-5.35,4.16" transform="translate(1.65 0.78)"/><path class="cls-5" d="M594.39,427.07a32.16,32.16,0,0,1,11.7,6.28" transform="translate(1.65 0.78)"/><path class="cls-5" d="M610.09,366.18a28,28,0,0,1-2.28,9.17" transform="translate(1.65 0.78)"/><path class="cls-5" d="M614.61,364.12A11.1,11.1,0,0,0,617.54,376" transform="translate(1.65 0.78)"/><path class="cls-5" d="M609.3,383.37l3-4.56,2,3.6" transform="translate(1.65 0.78)"/><path class="cls-5" d="M638.81,365.08c.54,7.49,7.36,13.23,14.57,15.32a96.26,96.26,0,0,0,9.54,1.87A80.83,80.83,0,0,1,689.19,392" transform="translate(1.65 0.78)"/><path class="cls-5" d="M590.58,362.87a41.78,41.78,0,0,1-5.37,9.68c-3.52,4.33-8.59,7-13.53,9.64L545.43,396" transform="translate(1.65 0.78)"/><path class="cls-5" d="M546.62,517.12c13-5.41,26.94-7.89,40.78-10.34a69.33,69.33,0,0,1,26.83-.93l39.62,4.62c8.21,1,17,2.16,23.16,7.63" transform="translate(1.65 0.78)"/><path class="cls-11" d="M665,527.22c0,1.65-32.86,4.3-53.21,2.17-31,3.24-53.26-2.15-53.26-3.79s35.63-4.13,53.24-2.7C636.62,524.92,665,525.58,665,527.22Z" transform="translate(1.65 0.78)"/><path class="cls-4" d="M581.91,427.88c0-8.26-13.91-3.67-28.64,0-13.91,3.46-24,7.16-25.95,11.8-3.12,7.64,11.62,8.82,25.95,8.82S581.91,436.13,581.91,427.88Z" transform="translate(1.65 0.78)"/><path class="cls-4" d="M645.47,429c0-8.26,8.31,1.08,25.75,1.08A51.71,51.71,0,0,1,696.45,437c3.12,7.65-8,12.63-22.34,12.63S645.47,440.93,645.47,429Z" transform="translate(1.65 0.78)"/><path class="cls-6" d="M565.11,430.07c.79-8.56-5.33-3.3-11.84-2.19s-10.51,2.92-10.51,4.39c0,4,3.9,7.41,10.51,7.41S564.75,434,565.11,430.07Z" transform="translate(1.65 0.78)"/><path class="cls-6" d="M659.66,430.07c0-2.38,4.74.14,10.09.14s12.26.24,12.26,2.62-5.83,5.69-11.17,5.69S659.66,432.45,659.66,430.07Z" transform="translate(1.65 0.78)"/><path class="cls-14" d="M699.33,353.46c0-21-35.33-39.1-93.24-38.87-71.24,4.1-81.93,32.66-81.93,46.29s44.63-17.7,91.6-17.7S699.33,367.09,699.33,353.46Z" transform="translate(1.65 0.78)"/><path class="cls-5" d="M681.16,350.83a144.25,144.25,0,0,0-49.36-12.76c-5.6-.42-11.23-.51-16.86-.45-24.62.27-49.94,3.73-71.29,16" transform="translate(1.65 0.78)"/><path class="cls-5" d="M537.18,358a42,42,0,0,1-7,1.09,5.7,5.7,0,0,1-4.07-.79c-1.46-1.18-1.53-3.34-1.47-5.21" transform="translate(1.65 0.78)"/><path class="cls-5" d="M680.77,351l4.11,1.28c2.59.8,5.3,1.62,8,1.2s5.32-2.44,5.48-5.15" transform="translate(1.65 0.78)"/><path class="cls-5" d="M683.17,346.34l.07,1.14a2.5,2.5,0,0,1,1.54.44" transform="translate(1.65 0.78)"/><path class="cls-5" d="M691.9,348.74a2.55,2.55,0,0,0-2,.36" transform="translate(1.65 0.78)"/><path class="cls-5" d="M690,342.77a1.23,1.23,0,0,1,.77-1.55" transform="translate(1.65 0.78)"/><path class="cls-5" d="M528.52,346.89l3.23-.71c1.74-.38,3.75-1,4.33-2.67a2.74,2.74,0,0,0-2.42-3.48" transform="translate(1.65 0.78)"/><path class="cls-5" d="M536,350.77a6.74,6.74,0,0,1-4.88,5,1.52,1.52,0,0,1-1.55-.26c-.52-.61-.25-1.93-1.05-2" transform="translate(1.65 0.78)"/><path class="cls-10" d="M458.86,424c-.77,37.06-14.57,82.95,1.19,77.38,23.37-8.27,25.9-35.26,25.9-72.33s36-71.95,19.19-69.13C488.66,362.69,460.05,366.93,458.86,424Z" transform="translate(1.65 0.78)"/><path class="cls-10" d="M790,430.07c3.4,36.47,4.7,69.21-14.31,69.21s-26.29-17.44-27.62-54c-1.59-43.51-37.19-89.24-35.27-88.14S782.89,353.63,790,430.07Z" transform="translate(1.65 0.78)"/><path class="cls-8" d="M614,568.27c6.56,0-19.78-19.51-25.32-13.71-19.55,20.47-64.49,26.54-64.49,33.1s-2.24-4.35,47.51,5.14C594.33,597.12,612.4,568.27,614,568.27Z" transform="translate(1.65 0.78)"/><path class="cls-8" d="M616.05,568.27c-6.55,0,19.78-19.51,25.33-13.71,19.55,20.47,64.48,26.54,64.48,33.1s2.25-4.35-47.51,5.14C635.7,597.12,617.62,568.27,616.05,568.27Z" transform="translate(1.65 0.78)"/><polygon class="cls-15" points="633.75 556.12 600.34 556.12 598.46 574.05 635.65 574.25 633.75 556.12"/><path class="cls-5" d="M598.11,554.55c2.86.82,5.34.11,8.28.2,3.34.1,6.67.5,10,.64a56.8,56.8,0,0,0,7.37-.41c-2.12-.72-4.42-.07-6.62.32-6.45,1.15-13.06.11-19.52-.94,2.17-.43,4.39.18,6.55.66a52.53,52.53,0,0,0,13.12,1.06c5.24-.17,10.42-.82,15.67-1.07" transform="translate(1.65 0.78)"/><path class="cls-2" d="M598.58,555.89c2.26,1.18,5,.94,7.51,1,3,0,6.07,0,9.1,0s5.9-.13,8.85-.25c2.71-.11,5.8.1,8.39-.79.58-.2,1.36-.7,1.16-1.44s-1.15-.86-1.73-.66c-2.32.8-5.16.56-7.59.66-2.79.11-5.57.19-8.36.24s-5.41,0-8.12,0c-2.42,0-5.35.36-7.56-.79-1.25-.65-3.3,1.18-1.65,2Z" transform="translate(1.65 0.78)"/><path class="cls-5" d="M633.62,554.89" transform="translate(1.65 0.78)"/><path class="cls-5" d="M633.55,554.89" transform="translate(1.65 0.78)"/><path class="cls-5" d="M608.24,574.67c.19-.31.29-.3.31-.67.18-.2.14-.11.32-.31a5.2,5.2,0,0,1,1.88-.19c.42,0,.83.12,1.24.16a11.22,11.22,0,0,0,1.42,0,55.53,55.53,0,0,1,7.74.06c.66,0,.19,0,.5.39a6.3,6.3,0,0,1,.87,1c.24.41.18.59.43,1" transform="translate(1.65 0.78)"/><path class="cls-16" d="M686.69,543.93a18.06,18.06,0,0,0-.42,15.59,2.5,2.5,0,0,0,4.66-1.26l-.09-1.66a2.5,2.5,0,0,0-5,0l.09,1.66,4.66-1.26c.23.52-.12-.32-.15-.42s-.16-.48-.24-.72c-.15-.53-.28-1.06-.38-1.59,0-.07-.11-.79,0-.2,0-.29-.06-.58-.08-.87a12.81,12.81,0,0,1,0-1.52c0-.26,0-.51,0-.76s.11-.91,0-.31a14.74,14.74,0,0,1,.3-1.5c.12-.49.27-1,.44-1.46,0-.1.4-.93.16-.41.12-.27.25-.53.38-.79a2.5,2.5,0,1,0-4.32-2.52Z" transform="translate(1.65 0.78)"/><path class="cls-16" d="M689.13,547.43c3.22,0,3.22-5,0-5s-3.22,5,0,5Z" transform="translate(1.65 0.78)"/><path class="cls-16" d="M687.17,562.33l.19.2a1.93,1.93,0,0,0,.81.51,2.58,2.58,0,0,0,2.73-.51l.39-.51a2.43,2.43,0,0,0,.34-1.26l-.09-.67a2.5,2.5,0,0,0-.64-1.1l-.2-.2a1.83,1.83,0,0,0-.8-.51,2.23,2.23,0,0,0-1.93,0,1.83,1.83,0,0,0-.8.51l-.39.51a2.54,2.54,0,0,0-.35,1.26l.09.67a2.52,2.52,0,0,0,.65,1.1Z" transform="translate(1.65 0.78)"/><path class="cls-16" d="M686.91,561l.22,1.58a2.8,2.8,0,0,0,1.15,1.49,2,2,0,0,0,.93.3,1.89,1.89,0,0,0,1,0l.6-.25a2.48,2.48,0,0,0,.89-.9l.25-.59a2.5,2.5,0,0,0,0-1.33l-.21-1.58a1.89,1.89,0,0,0-.45-.85,2,2,0,0,0-.7-.65,1.85,1.85,0,0,0-.93-.29,1.89,1.89,0,0,0-1,0l-.6.25a2.64,2.64,0,0,0-.89.9l-.26.6a2.5,2.5,0,0,0,0,1.33Z" transform="translate(1.65 0.78)"/><path class="cls-16" d="M732.14,521.31a15.39,15.39,0,0,0-1.72-3.53,2.8,2.8,0,0,0-1.49-1.15,1.89,1.89,0,0,0-1,0,1.77,1.77,0,0,0-.93.3,2.5,2.5,0,0,0-.9,3.42,12.48,12.48,0,0,1,1.19,2.18l-.25-.6c.1.25.2.5.28.75a2,2,0,0,0,.45.85,2.26,2.26,0,0,0,1.63.94,1.89,1.89,0,0,0,1,0,2.49,2.49,0,0,0,1.49-1.15,2.44,2.44,0,0,0,.25-1.92Z" transform="translate(1.65 0.78)"/><path class="cls-16" d="M730.27,527.26c3.22,0,3.23-5,0-5s-3.22,5,0,5Z" transform="translate(1.65 0.78)"/><path class="cls-16" d="M729.68,527.26c3.22,0,3.22-5,0-5s-3.22,5,0,5Z" transform="translate(1.65 0.78)"/><path class="cls-16" d="M687.57,565l1.17,2a1.91,1.91,0,0,0,.64.71,1.83,1.83,0,0,0,.85.44,1.89,1.89,0,0,0,1,0,2,2,0,0,0,.93-.3l.5-.39a2.52,2.52,0,0,0,.65-1.1l.09-.67a2.53,2.53,0,0,0-.34-1.26l-1.18-2a2.8,2.8,0,0,0-1.49-1.15,2,2,0,0,0-1,0,1.77,1.77,0,0,0-.93.3l-.5.39a2.52,2.52,0,0,0-.65,1.1l-.08.67a2.43,2.43,0,0,0,.34,1.26Z" transform="translate(1.65 0.78)"/><path class="cls-16" d="M688.77,566.1l.2,1.59A2.43,2.43,0,0,0,690.5,570a1.9,1.9,0,0,0,1,.22l.66-.09a2.52,2.52,0,0,0,1.1-.65l.39-.5a2.54,2.54,0,0,0,.35-1.26l-.2-1.59a1.88,1.88,0,0,0-.22-1,1.83,1.83,0,0,0-.51-.8,2.83,2.83,0,0,0-1.77-.74l-.66.09a2.5,2.5,0,0,0-1.11.65l-.39.5a2.53,2.53,0,0,0-.34,1.26Z" transform="translate(1.65 0.78)"/><path class="cls-16" d="M689.25,568.55a15.39,15.39,0,0,0,.85,3.35,1.78,1.78,0,0,0,.44.85,1.93,1.93,0,0,0,.71.65,1.78,1.78,0,0,0,.92.29,1.89,1.89,0,0,0,1,0,2.55,2.55,0,0,0,1.5-1.15,2.51,2.51,0,0,0,.25-1.93,15.39,15.39,0,0,1-.85-3.35,1.94,1.94,0,0,0-.45-.85,2.26,2.26,0,0,0-1.63-.94,2,2,0,0,0-1,0,2.57,2.57,0,0,0-1.49,1.15l-.25.6a2.5,2.5,0,0,0,0,1.33Z" transform="translate(1.65 0.78)"/><path class="cls-16" d="M690.27,572.3l.74,3a2.87,2.87,0,0,0,1.15,1.5,1.85,1.85,0,0,0,.93.29,1.89,1.89,0,0,0,1,0,2.5,2.5,0,0,0,1.49-1.15,2.69,2.69,0,0,0,.26-1.93l-.75-3a1.78,1.78,0,0,0-.44-.85,1.85,1.85,0,0,0-.71-.65,1.9,1.9,0,0,0-.93-.3,1.86,1.86,0,0,0-1,.05,2.51,2.51,0,0,0-1.5,1.15,2.62,2.62,0,0,0-.25,1.92Z" transform="translate(1.65 0.78)"/><path class="cls-16" d="M729.88,528.45c3.22,0,3.22-5,0-5s-3.22,5,0,5Z" transform="translate(1.65 0.78)"/><path class="cls-16" d="M729.48,529.63c3.22,0,3.23-5,0-5s-3.22,5,0,5Z" transform="translate(1.65 0.78)"/><path class="cls-16" d="M729.48,530.82c3.22,0,3.23-5,0-5s-3.22,5,0,5Z" transform="translate(1.65 0.78)"/><path class="cls-16" d="M729.68,531.61c3.22,0,3.22-5,0-5s-3.22,5,0,5Z" transform="translate(1.65 0.78)"/><path class="cls-16" d="M694.27,579.08c3.22,0,3.23-5,0-5s-3.22,5,0,5Z" transform="translate(1.65 0.78)"/><path class="cls-16" d="M544.63,571.07c.5-4.1,1.18-8.17,2-12.21.43-2.06.94-4.1,1.39-6.15s.24-4-1.62-5.32a2.51,2.51,0,0,0-3.42.9,2.55,2.55,0,0,0,.89,3.42,1.28,1.28,0,0,1-.6-.8c0,.3,0,.38,0,.24,0,.13-.19.76-.26,1.05q-.3,1.21-.57,2.46c-.4,1.77-.77,3.56-1.11,5.35-.69,3.67-1.24,7.36-1.69,11.06a2.51,2.51,0,0,0,2.5,2.5,2.57,2.57,0,0,0,2.5-2.5Z" transform="translate(1.65 0.78)"/><path class="cls-16" d="M501.07,524.71a7.72,7.72,0,0,0,3,2,2.49,2.49,0,0,0,2.63-.9,2.54,2.54,0,0,0,.19-2.77l-.77-1.64-4.32,2.53a5.58,5.58,0,0,1,.32.52c.12.21,0-.2.08.2.06.2.11.39.16.59s0-.25,0,.19c0,.06,0,.7,0,.41s-.1.43-.09.42a4.35,4.35,0,0,0-.05,2.12,7.55,7.55,0,0,0,1.44,2.38l1.89,2.54,1.49-3.67a1.58,1.58,0,0,1,.81,0,3.6,3.6,0,0,1-.4-.28c-.29-.2-.56-.42-.84-.63l-1.81-1.37a2.5,2.5,0,0,0-3,3.92l2.91,3,1.45,1.51.63.65.41.43-.21-.3v-1.33l-.07.21L510.6,534a57,57,0,0,1-7.49-6.09l-3.54,3.54a75.23,75.23,0,0,1,7.6,7l3-3.93q-3.76-2.46-7.35-5.18l-2.52,4.31a31.65,31.65,0,0,1,4.12,2.44c.68.48,1,.7,1.51,1.14s1.29,1.08,1.91,1.65l2.44-4.18a19.6,19.6,0,0,1-3.58-1.57,25.77,25.77,0,0,1-3.59-2.35l-1.93,4.57a63.58,63.58,0,0,1,10.46,4.13l1.93-4.57c-.93-.31-1.87-.63-2.79-1l-1.38-.54a1.6,1.6,0,0,1-.31-.13l-.78-.36a21.85,21.85,0,0,1-2.54-1.44l-.59-.41c-.14-.11-.13-.1,0,0l-.28-.23c-.4-.34-.78-.7-1.15-1.08l-3.54,3.54a52.45,52.45,0,0,1,6.1,6.28l1.77-4.26c-.3,0-.32,0,0,0-.28-.09-.3-.1-.07,0-.21-.11-.42-.25-.62-.38-.5-.32-1-.66-1.48-1s-.71-.53-1.13-.87l-.64-.52-.42-.36a1.67,1.67,0,0,1,.36,1.63l-.64,1.1.07-.07-1.1.64.12,0-2.43-.65a18.79,18.79,0,0,0,6.57,4.25,2.52,2.52,0,0,0,3.07-1.75,2.58,2.58,0,0,0-1.74-3.08c-.52-.2.11.08-.34-.14l-.68-.33q-.67-.36-1.32-.78l-.62-.43c-.39-.28.1.11-.29-.24s-.76-.67-1.12-1a2.54,2.54,0,0,0-2.43-.65,2.88,2.88,0,0,0-1.67,4.19,7.56,7.56,0,0,0,2.25,2.22c1.79,1.39,3.93,3.36,6.34,3.29a2.51,2.51,0,0,0,2.28-1.54,2.57,2.57,0,0,0-.51-2.73,54.1,54.1,0,0,0-6.1-6.29,2.5,2.5,0,1,0-3.54,3.54c3.24,3.36,7.69,5,12,6.43,2.66.9,4.47-3.31,1.93-4.57a74.14,74.14,0,0,0-11.66-4.64,2.51,2.51,0,0,0-3,1.45,2.56,2.56,0,0,0,1,3.12,28.79,28.79,0,0,0,8.36,4.42c2.35.8,4.24-2.52,2.43-4.18a37,37,0,0,0-8.56-6,2.55,2.55,0,0,0-3.42.89,2.58,2.58,0,0,0,.9,3.42q3.59,2.73,7.34,5.19a2.5,2.5,0,0,0,3-3.93,75.12,75.12,0,0,0-7.59-7,2.5,2.5,0,0,0-3.54,3.54,67.56,67.56,0,0,0,8.5,6.87,2.53,2.53,0,0,0,3.67-1.5c.69-2.27-1.38-3.84-2.77-5.28l-3.64-3.77-3,3.93c1.77,1.34,3.67,3.38,6.09,2.73,1.43-.38,2.48-2.36,1.5-3.67l-1.8-2.42c-.3-.41-.61-.8-.9-1.21-.13-.18-.31-.66-.15,0,.07.28,0,.67.13.19a7.81,7.81,0,0,0-1.05-5.92,2.5,2.5,0,0,0-4.32,2.53l.78,1.63,2.82-3.67c.45.18-.35-.23-.43-.3.37.27-.29-.32-.36-.39a2.52,2.52,0,0,0-3.54,0,2.55,2.55,0,0,0,0,3.53Z" transform="translate(1.65 0.78)"/></svg>