<svg id="Layer_1" data-name="Layer 1" xmlns="http://www.w3.org/2000/svg" xmlns:xlink="http://www.w3.org/1999/xlink" viewBox="0 0 529 670.95"><defs><style>.cls-1{fill:#939598;}.cls-2{fill:#00a79d;}.cls-3{fill:#7f3f98;}.cls-4{fill:#006838;}.cls-5{fill:#9b8579;}.cls-6{fill:#009444;}.cls-7{fill:#ed1c24;}.cls-8{fill:#754c29;}.cls-9{fill:#be1e2d;}.cls-10{fill:#fff200;}.cls-11,.cls-16{fill:#f7941d;}.cls-12{fill:url(#radial-gradient);}.cls-13{fill:#c2b59b;}.cls-14{fill:#ee2a7b;}.cls-15{fill:#808285;}.cls-16,.cls-18{stroke:#231f20;stroke-miterlimit:10;}.cls-17{fill:#231f20;}.cls-18{fill:none;}.cls-19{fill:#58595b;}.cls-20{fill:#414042;}.cls-21{fill:#f26522;}.cls-22{fill:#8dc63f;}</style><radialGradient id="radial-gradient" cx="141.41" cy="335.36" r="11.57" gradientUnits="userSpaceOnUse"><stop offset="0.52" stop-color="#f7941d"/><stop offset="1" stop-color="#fff200"/></radialGradient></defs><path class="cls-1" d="M230.14,187.19a64.81,64.81,0,1,1-46.67-62.26,42.14,42.14,0,1,0,46.64,60.21C230.13,185.82,230.14,186.5,230.14,187.19Z" transform="translate(-65.33 -56.16)"/><polygon class="cls-2" points="127.51 43.12 127.51 62.11 139.38 48.66 151.25 62.11 148.08 43.12 151.25 43.12 164.81 47.47 151.64 32.44 164.81 20.18 148.08 20.18 146.16 0 134.63 19.78 122.37 6.33 124.35 25.32 102.98 21.36 120 34.42 108.13 53.8 127.51 43.12"/><polygon class="cls-2" points="202.28 115.12 209.8 97.71 212.96 118.29 228 111.56 217.31 123.43 230.37 131.03 216.33 131.03 218.5 146.77 207.43 134.9 198.33 153.5 198.33 134.9 183.29 139.65 193.58 127.39 176.17 119.87 193.97 118.68 192.79 104.83 202.28 115.12"/><polygon class="cls-2" points="267.16 71.21 277.45 62.11 275.86 74.77 296.44 73.19 281.8 84.26 292.48 97.71 276.26 94.15 277.45 111.56 267.16 97.71 256.88 108.79 259.25 93.36 240.67 95.34 256.88 83.47 245.01 75.17 260.83 75.17 258.85 62.11 267.16 71.21"/><polygon class="cls-3" points="445.19 260.7 445.19 403.92 400.09 403.92 400.09 327.17 372.4 327.17 372.4 403.92 332.44 403.92 332.44 260.7 388.81 198.2 445.19 260.7"/><path class="cls-4" d="M328.93,696.65c-.39-16.62,0-46.68,0-46.68s-18.52,2.42-23.77-17.81-17.93-51,5.18-51.82,5.93,35.61,18.59,34.81S321.42,536,349.51,536s5.53,65.67,21.36,67.65,7.51-37.58,23.73-34.42,15,47.48,7.13,62.11S364.14,650,364.14,650l3.17,46.68S352.15,687.55,328.93,696.65Z" transform="translate(-65.33 -56.16)"/><polygon class="cls-5" points="147.29 631.38 171.82 509.54 105.75 511.12 147.29 631.38"/><path class="cls-6" d="M183.35,543.15s-5.54-13,2-22.15c7.91-4,24.13-8.31,39.16-3.56S241.9,532.08,245.86,536s-8.71,19.39-8.71,19.39,14.25,7.91,0,15.82c-3.43,11.5-27.29,0-27.29,0s-1.59,4.39-9.89,4.75-12.27-7.12-12.27-7.12-19,18.2-29.27-3.17C152.89,536,183.35,543.15,183.35,543.15Z" transform="translate(-65.33 -56.16)"/><path class="cls-4" d="M198.14,532.67a7,7,0,0,1,3.07-1.9,8.87,8.87,0,0,1,3.66-.33,8.71,8.71,0,0,1,3.48,1.17,6.86,6.86,0,0,1,2.54,2.56,11.28,11.28,0,0,0-12.75-1.5Z" transform="translate(-65.33 -56.16)"/><path class="cls-4" d="M214.62,550.64c1.63-.75,3.25-1.52,5-2.13a18.18,18.18,0,0,1,5.35-1.14,10.41,10.41,0,0,1,5.39,1.26,6.61,6.61,0,0,1,3.4,4.18,7.48,7.48,0,0,0-3.75-3.49,11.21,11.21,0,0,0-5-1C221.5,548.48,218.14,549.87,214.62,550.64Z" transform="translate(-65.33 -56.16)"/><path class="cls-4" d="M177.7,561.66a12.82,12.82,0,0,1,5-3.76,19.22,19.22,0,0,1,6.15-1.48,16.3,16.3,0,0,1,6.32.59,8.88,8.88,0,0,1,2.85,1.47,6.23,6.23,0,0,1,1.89,2.5,7.82,7.82,0,0,0-4.95-3.22,18.75,18.75,0,0,0-6-.35A19.14,19.14,0,0,0,177.7,561.66Z" transform="translate(-65.33 -56.16)"/><path class="cls-4" d="M224.9,530.15a5.43,5.43,0,0,1,3-.43,7.19,7.19,0,0,1,2.87,1,7.42,7.42,0,0,1,2.21,2.11,5.44,5.44,0,0,1,.95,2.83,9.67,9.67,0,0,0-9-5.51Z" transform="translate(-65.33 -56.16)"/><path class="cls-7" d="M518.15,164.56c6.39-14.24-20.5-43.25-26.1-48-5.19,4.07-21.82,9.52-21.82,9.52a164.72,164.72,0,0,1-23.51-9.78c-10.88-5.77-27.18,28.37-27.18,45.1,0,12.53-1.29,19.56,12.74,32.53s21.76,15.73,36,15.73c15.13,0,22,4.94,37.6-17.51C514.44,181.77,519.21,178,518.15,164.56Z" transform="translate(-65.33 -56.16)"/><polygon class="cls-8" points="399.65 67.86 394.75 65.73 391.15 53.18 382.65 43.93 388.22 43.31 391.15 38.49 394.41 53.18 399.65 67.86"/><path class="cls-6" d="M492.32,115.65c-4.76,3.28-1,1.52-8.84,5.66-12.79,6.72-22.3,3.9-18.49-4.49,10.15-22.35,23.59-5.73,28.52-27.69C494.89,83,499.82,110.48,492.32,115.65Z" transform="translate(-65.33 -56.16)"/><polygon class="cls-9" points="158 392.99 12.68 394.98 10.67 289.71 152.37 285.37 158 392.99"/><polygon class="cls-10" points="88.61 289.15 63.88 286.84 69.72 393.88 92.92 393.88 88.61 289.15"/><path class="cls-10" d="M129.21,343l-21.52,2.24a13.37,13.37,0,0,1-14.2-17.1L97.26,308c-1.2-5-.09,5.16,8.94,11.81l25,9Z" transform="translate(-65.33 -56.16)"/><path class="cls-11" d="M131.23,328.89c3.68,2.49-2.08-3.43-12.66-4.58-7.52-.81-17-7.65-19.27-11.51s-5.25-9.44,5.17-7.32C110.14,306.64,126.34,325.57,131.23,328.89Z" transform="translate(-65.33 -56.16)"/><path class="cls-12" d="M148.48,345.88H135.54A6.66,6.66,0,0,1,129,338l1.77-9.21a4.39,4.39,0,0,1,4.64-3.9l14.05.87a4.78,4.78,0,0,1,4.48,4.77v9.91A5.46,5.46,0,0,1,148.48,345.88Z" transform="translate(-65.33 -56.16)"/><path class="cls-10" d="M186.59,306.7l-9.08,13.85-23.57,6.63,16.37,13.13h13.54s7.19-3.93,9.49-7.37S186.59,306.7,186.59,306.7Z" transform="translate(-65.33 -56.16)"/><path class="cls-11" d="M186.25,305c-3.72-4.75-1.4-1.71-10.45-1.71S148,328,153.94,327.18a93.59,93.59,0,0,0,19.7-4.31C179.53,321.08,188.55,308,186.25,305Z" transform="translate(-65.33 -56.16)"/><path class="cls-10" d="M127.1,343.22s-26.65,8.7-25.21,17.9,16.5,15.82,14.66,21-8.91,6-18.12,15.24,12.37,41.13,12.37,41.13l-1.15-21.57,12.08,6.61s-18-19.12-15.24-21.86,18.77-13.14,17-17.54c0,0-16.59-19.68-11.38-23.3,9.94-2.3,28.06-14.95,28.06-14.95Z" transform="translate(-65.33 -56.16)"/><path class="cls-10" d="M153.94,327.18s30.2,22.44,29.05,36.53-7.59,17.84-7.48,29.05c4.89,13.23,23.59,20.13,23.59,20.13l26.74,10.64-18.12,1.73,7.37,24-39.86-31.2s-12.68-10.2-9.94-22.07,11.09-24.81,4.41-34.59c2.36-4.19-15.76-18.41-15.76-18.41Z" transform="translate(-65.33 -56.16)"/><path class="cls-13" d="M293.13,362.56l44.31-.4L322,331.51l-4,5a3.78,3.78,0,0,1-4.19,1.23L306,335.07Z" transform="translate(-65.33 -56.16)"/><path class="cls-14" d="M338.63,461.36c0,3.12-7.72,6.63-20,7.82-9.7.93-18.88-2.86-20-7.82-.3-1.37-3.41-7.66,0-7.7,5-.06,13.94.09,20,.09s15.23,0,19.77-.14C341.06,453.52,338.63,460,338.63,461.36Z" transform="translate(-65.33 -56.16)"/><path class="cls-15" d="M338.87,453.55l-42.08-.76a2.1,2.1,0,0,1-2.06-1.9l-.74-7.51a2.45,2.45,0,0,1,2.44-2.69h42a3.36,3.36,0,0,1,3.36,3.36v6.63A2.87,2.87,0,0,1,338.87,453.55Z" transform="translate(-65.33 -56.16)"/><polygon class="cls-11" points="230.76 383.54 227.8 306.4 235.99 299.1 238.68 296.7 245.8 304.62 249.36 289.38 257.67 304.62 264.99 292.55 272.11 306 274.31 383.54 240.67 383.54 230.76 383.54"/><path class="cls-16" d="M306,438.52l-4.68-83.26c1.52,7.47.44,15.39.72,23,.16,4.26.71,8.5,1.19,12.75A428.27,428.27,0,0,1,306,438.52Z" transform="translate(-65.33 -56.16)"/><line class="cls-11" x1="247.95" y1="295.42" x2="253.03" y2="383.54"/><line class="cls-11" x1="257.6" y1="303.83" x2="263.93" y2="382.75"/><path class="cls-17" d="M313.28,316.08l-7.28,19,9.07,2.49a2.81,2.81,0,0,0,2.64-.43l4.3-5.62Z" transform="translate(-65.33 -56.16)"/><path class="cls-18" d="M313.69,352.81c1.2,4,.43,8.21.21,12.35a95.24,95.24,0,0,0,.58,13.5c1.79,20.38,3,40.8,4.25,61.23" transform="translate(-65.33 -56.16)"/><path class="cls-18" d="M323.14,360.6l3.55,43.73,2.87,35.37" transform="translate(-65.33 -56.16)"/><path class="cls-18" d="M306.91,594.17a5.86,5.86,0,0,1-4-.75" transform="translate(-65.33 -56.16)"/><path class="cls-18" d="M312.17,598.4a3,3,0,0,1,1.34-1.31" transform="translate(-65.33 -56.16)"/><path class="cls-18" d="M310.33,609.3a7.4,7.4,0,0,1-3.65-1.69" transform="translate(-65.33 -56.16)"/><path class="cls-18" d="M315,619a27.12,27.12,0,0,1,2.63-5.55" transform="translate(-65.33 -56.16)"/><path class="cls-18" d="M312.18,627.76a4.18,4.18,0,0,1-2.84-1.7" transform="translate(-65.33 -56.16)"/><path class="cls-18" d="M319.58,634.82l2.15-1" transform="translate(-65.33 -56.16)"/><path class="cls-18" d="M331.74,624.56l2.88-2.93" transform="translate(-65.33 -56.16)"/><path class="cls-18" d="M343.85,602.09l-1.8-2.15" transform="translate(-65.33 -56.16)"/><path class="cls-18" d="M344.33,583.14a13,13,0,0,1-2.59-4.78" transform="translate(-65.33 -56.16)"/><path class="cls-18" d="M344.45,568.05a29.28,29.28,0,0,0-2.45-5.52" transform="translate(-65.33 -56.16)"/><path class="cls-18" d="M346.27,554.61l-.56-2.1" transform="translate(-65.33 -56.16)"/><path class="cls-18" d="M352.24,553l2.66-1.55" transform="translate(-65.33 -56.16)"/><path class="cls-18" d="M352.28,564.44a10,10,0,0,0,4.24-1.34" transform="translate(-65.33 -56.16)"/><path class="cls-18" d="M353,576.49a29.5,29.5,0,0,1,3.45-4" transform="translate(-65.33 -56.16)"/><path class="cls-18" d="M354.37,586l2.64-2.9" transform="translate(-65.33 -56.16)"/><path class="cls-18" d="M356.78,597.68l3.16-1.08" transform="translate(-65.33 -56.16)"/><path class="cls-18" d="M352.83,608l7.87-1.78" transform="translate(-65.33 -56.16)"/><path class="cls-18" d="M346.21,617.21a3.93,3.93,0,0,1-3.35-2.23" transform="translate(-65.33 -56.16)"/><path class="cls-18" d="M348.08,626.4a17,17,0,0,0,6.3-5.32" transform="translate(-65.33 -56.16)"/><path class="cls-18" d="M343.83,632.16a3.65,3.65,0,0,1-2.89-.8" transform="translate(-65.33 -56.16)"/><path class="cls-18" d="M348.42,638.37a28.23,28.23,0,0,1,5.4-3.13" transform="translate(-65.33 -56.16)"/><path class="cls-18" d="M343,644.86a4.15,4.15,0,0,1-3.41-2.15" transform="translate(-65.33 -56.16)"/><path class="cls-18" d="M349.12,650.38l4.46-2.15" transform="translate(-65.33 -56.16)"/><path class="cls-18" d="M340.64,654.67a29.39,29.39,0,0,1-4.18-1.95" transform="translate(-65.33 -56.16)"/><path class="cls-18" d="M350.46,659.94a30.77,30.77,0,0,0,5.47-2.52" transform="translate(-65.33 -56.16)"/><path class="cls-18" d="M338,663.61l-2.62-1.35" transform="translate(-65.33 -56.16)"/><path class="cls-18" d="M337.2,671.07a7.17,7.17,0,0,1-3.85-2.56" transform="translate(-65.33 -56.16)"/><path class="cls-18" d="M334.29,681.58a20.44,20.44,0,0,1-3.61-2.51" transform="translate(-65.33 -56.16)"/><path class="cls-18" d="M344.29,668.5a37.18,37.18,0,0,0,3.53-4.93" transform="translate(-65.33 -56.16)"/><path class="cls-18" d="M355.62,670.07a26.33,26.33,0,0,1,2.74-2.54" transform="translate(-65.33 -56.16)"/><path class="cls-18" d="M347,675.42a2.62,2.62,0,0,0,2.14,2.59" transform="translate(-65.33 -56.16)"/><path class="cls-18" d="M343.11,683a12.28,12.28,0,0,1,1.23,3.47" transform="translate(-65.33 -56.16)"/><path class="cls-18" d="M335.4,688.61a6.44,6.44,0,0,1-2.12,1.57" transform="translate(-65.33 -56.16)"/><path class="cls-18" d="M350.19,684.89a9.15,9.15,0,0,0,5.25,2.19" transform="translate(-65.33 -56.16)"/><path class="cls-18" d="M357.82,678.33l4.75-3.43" transform="translate(-65.33 -56.16)"/><path class="cls-18" d="M366.81,615.31l3.42-5" transform="translate(-65.33 -56.16)"/><path class="cls-18" d="M375,613.22l3.06-5.07" transform="translate(-65.33 -56.16)"/><path class="cls-18" d="M383.06,600.76l1.72-6" transform="translate(-65.33 -56.16)"/><path class="cls-18" d="M386.76,586.79l1.16-4.72" transform="translate(-65.33 -56.16)"/><path class="cls-18" d="M395,583.63a5.93,5.93,0,0,1,.15-2.65" transform="translate(-65.33 -56.16)"/><path class="cls-18" d="M391,576.24l1.42-5" transform="translate(-65.33 -56.16)"/><path class="cls-18" d="M402.39,585.75l.83-4.48" transform="translate(-65.33 -56.16)"/><path class="cls-18" d="M402.37,596.55l2.7-3.91" transform="translate(-65.33 -56.16)"/><path class="cls-18" d="M391.3,596.82a19.64,19.64,0,0,0,2.67-5.53" transform="translate(-65.33 -56.16)"/><path class="cls-18" d="M394,605.54a55.58,55.58,0,0,0,2.31-6.88" transform="translate(-65.33 -56.16)"/><path class="cls-18" d="M383.08,618.14a80.44,80.44,0,0,0,6.79-8.29" transform="translate(-65.33 -56.16)"/><path class="cls-18" d="M395.91,619.71l3.19-7.8" transform="translate(-65.33 -56.16)"/><path class="cls-18" d="M373.83,624.76a15.54,15.54,0,0,1,1.41-3.4" transform="translate(-65.33 -56.16)"/><path class="cls-18" d="M363.56,626.84l4-4.68" transform="translate(-65.33 -56.16)"/><path class="cls-18" d="M366.83,635.64l4.65-5.1" transform="translate(-65.33 -56.16)"/><path class="cls-18" d="M368.92,642a27.14,27.14,0,0,0,5-3.74" transform="translate(-65.33 -56.16)"/><path class="cls-18" d="M379.46,628.76a13.55,13.55,0,0,0,2.62-4" transform="translate(-65.33 -56.16)"/><path class="cls-18" d="M381,637.94a32.35,32.35,0,0,0,3.74-8.15" transform="translate(-65.33 -56.16)"/><path class="cls-18" d="M387.29,625q1.29-2.73,2.36-5.54" transform="translate(-65.33 -56.16)"/><path class="cls-18" d="M390.34,633.83a21,21,0,0,0,4.05-5.92" transform="translate(-65.33 -56.16)"/><path class="cls-18" d="M400.93,626.37a14.52,14.52,0,0,1,1-6.32" transform="translate(-65.33 -56.16)"/><path class="cls-18" d="M403.21,608.44l1.84-4.48" transform="translate(-65.33 -56.16)"/><path class="cls-18" d="M318.5,606.65a4.32,4.32,0,0,1-2.59-1.93" transform="translate(-65.33 -56.16)"/><path class="cls-18" d="M318.33,592.84l-1.6-4" transform="translate(-65.33 -56.16)"/><path class="cls-18" d="M312,588.62l-1.4-3.39" transform="translate(-65.33 -56.16)"/><path class="cls-18" d="M305,603.72l-4.1-5.89" transform="translate(-65.33 -56.16)"/><path class="cls-18" d="M305.39,589.43l-.9-4.46" transform="translate(-65.33 -56.16)"/><path class="cls-18" d="M306.55,618.75l-1.47-4.26" transform="translate(-65.33 -56.16)"/><path class="cls-18" d="M325.43,621.82a23.2,23.2,0,0,1-3.76-4.68" transform="translate(-65.33 -56.16)"/><path class="cls-18" d="M319.89,626.35a12,12,0,0,0-1.92-3.66" transform="translate(-65.33 -56.16)"/><path class="cls-18" d="M315,639.41l-4.87-5.14" transform="translate(-65.33 -56.16)"/><path class="cls-18" d="M323.72,646a14.29,14.29,0,0,1-4.63-4.12" transform="translate(-65.33 -56.16)"/><path class="cls-18" d="M331.39,641.06l-3.08,2.48" transform="translate(-65.33 -56.16)"/><path class="cls-18" d="M332,635.89a19.9,19.9,0,0,1-5.54-2.39" transform="translate(-65.33 -56.16)"/><path class="cls-18" d="M334.29,631a26.73,26.73,0,0,1-4.92-2.56" transform="translate(-65.33 -56.16)"/><path class="cls-18" d="M337.26,608.4l-1.38-.67" transform="translate(-65.33 -56.16)"/><path class="cls-18" d="M343,608.94a2.65,2.65,0,0,1-2.65-1" transform="translate(-65.33 -56.16)"/><path class="cls-18" d="M338.52,590.29l-1.81-1.11" transform="translate(-65.33 -56.16)"/><path class="cls-18" d="M349.82,594a7,7,0,0,1-2.25-3" transform="translate(-65.33 -56.16)"/><path class="cls-18" d="M342.77,572.84l-3.9-2.2" transform="translate(-65.33 -56.16)"/><path class="cls-18" d="M348.85,574.14l1-2.66" transform="translate(-65.33 -56.16)"/><path class="cls-18" d="M348.61,564.64l-.5-2.11" transform="translate(-65.33 -56.16)"/><path class="cls-18" d="M349.61,548.28l2.36-5" transform="translate(-65.33 -56.16)"/><path class="cls-18" d="M354.35,557.89l6.62-1.44" transform="translate(-65.33 -56.16)"/><path class="cls-18" d="M340.1,554.65,338.56,552" transform="translate(-65.33 -56.16)"/><path class="cls-18" d="M346.47,545.13A5.23,5.23,0,0,1,346,542" transform="translate(-65.33 -56.16)"/><path class="cls-18" d="M357.56,546.72a3.84,3.84,0,0,1,1.84-2.12" transform="translate(-65.33 -56.16)"/><polygon class="cls-19" points="12.39 670.95 19.91 670.95 25.93 481.18 2.48 481.18 12.39 670.95"/><path class="cls-20" d="M91.18,535.43c.63,2.43,0,4.56-11.87,4.56-9.12,0-14.54-3.65-13.26-5.82,4.55-7.63,7.69,0,14.25,0S88.8,526.34,91.18,535.43Z" transform="translate(-65.33 -56.16)"/><path class="cls-1" d="M91.34,515.36c-2.54-9-8.79-20.7-11-26.21C76,497.07,69.42,503,65.87,516.31c-3.14,11.77,8.36,17.86,14.43,17.86S94.43,526.3,91.34,515.36Z" transform="translate(-65.33 -56.16)"/><path class="cls-17" d="M80.16,490.74,79.92,511a1.83,1.83,0,0,1-.29,1.18,2.41,2.41,0,0,1-.83.53c-2.27,1.14-2.83,4.34-1.78,6.65a4.11,4.11,0,0,0,1.89,2.09,3.46,3.46,0,0,0,4.15-1.32,5,5,0,0,0,.32-4.55,9.07,9.07,0,0,0-2.93-3.66" transform="translate(-65.33 -56.16)"/><path class="cls-21" d="M593.59,613.22c6.59,33-31.77,65.58-66.33,66.63s-59.75-26.14-61.58-59.8c-2-36.62,27.14-68.74,63-67.54C559.16,553.53,586,575.37,593.59,613.22Z" transform="translate(-65.33 -56.16)"/><path class="cls-17" d="M513.68,586c-.26,1.07-8.7,19.54-8.7,19.54l20.83.66Z" transform="translate(-65.33 -56.16)"/><polygon class="cls-17" points="477.62 529.84 467.6 550.08 492.13 550.08 477.62 529.84"/><polygon class="cls-17" points="462.33 559.93 454.94 572.25 471.03 574.38 462.33 559.93"/><path class="cls-17" d="M502.59,634.05l8.45.64v7.61l7.65,1.24,1.58-7.65,3.43.92-1.32,7,10.55,1.07v-8.05h5.28v9.6l9.23-2.62-2.24-9.1h10.94s2.37,7.42-3.56,15.08S530,659.94,530,659.94s-21.74-.56-24.07-11.06Z" transform="translate(-65.33 -56.16)"/><path class="cls-22" d="M537.85,557.71l-12-3.1c-2.3-9.93-6.26-14.93-11.6-15.81l9.4-7.82A48,48,0,0,1,537.85,557.71Z" transform="translate(-65.33 -56.16)"/><polygon class="cls-22" points="447.03 506.36 460.48 498.45 472.52 501.55 481.31 510.59 468.65 504.52 457.58 511.88 460.48 503.47 447.03 506.36"/><path class="cls-18" d="M518.4,556a32.3,32.3,0,0,0-18.23,6.77c-4.39,3.44-7.8,7.95-11.16,12.41-2.56,3.39-5.11,6.78-7.36,10.38a86.5,86.5,0,0,0-6.72,13.27c-4.24,10.37-6.82,21.7-5.33,32.81,1.12,8.29,4.44,16.09,7.74,23.78.17.4.39.85.81.94s.87-.53.5-.76" transform="translate(-65.33 -56.16)"/><path class="cls-18" d="M510.33,564c-8.69,6.71-13.49,17.16-17.79,27.26a109.89,109.89,0,0,0-6.48,18.29c-2.43,10.61-1.84,21.73.3,32.4s5.78,21,9.44,31.22" transform="translate(-65.33 -56.16)"/><path class="cls-18" d="M510.21,656.05l4.35,10.43a28.76,28.76,0,0,0,3.14,6.12c2,2.68,4.87,4.71,6.24,7.74.09.21.22.44.44.45s.23-.46,0-.37" transform="translate(-65.33 -56.16)"/><path class="cls-18" d="M504,633q-.31-13.32.08-26.64" transform="translate(-65.33 -56.16)"/><path class="cls-18" d="M504.07,604.42l13.8-34a19.37,19.37,0,0,1,3.38-6.1" transform="translate(-65.33 -56.16)"/><path class="cls-18" d="M531.88,562.8a36.65,36.65,0,0,0,4.85,7.69,13.38,13.38,0,0,1,2.49,3.64,17,17,0,0,1,.64,3.49,35,35,0,0,0,3.23,9.36" transform="translate(-65.33 -56.16)"/><path class="cls-18" d="M546.08,607.48A42.5,42.5,0,0,1,548.51,621c0,1.24,0,2.48.09,3.72.16,1.75.62,3.47.67,5.22a6.3,6.3,0,0,1-1.62,4.85" transform="translate(-65.33 -56.16)"/><path class="cls-18" d="M547.55,655.17c.86,2.69-.06,5.59-1,8.27L542.28,676a5.26,5.26,0,0,1,1.2-1.88" transform="translate(-65.33 -56.16)"/><path class="cls-18" d="M571.7,660.12c5.27-12.18,4.28-26.07,2.59-39.23-1.33-10.32-3.07-20.7-7-30.33S556.94,572,548,566.64" transform="translate(-65.33 -56.16)"/><path class="cls-18" d="M504.27,604.13a5.37,5.37,0,0,0-.29,3.49" transform="translate(-65.33 -56.16)"/><path class="cls-18" d="M510.77,656.69a11.62,11.62,0,0,0-1-3.69" transform="translate(-65.33 -56.16)"/><path class="cls-18" d="M503.92,632.43v3.43" transform="translate(-65.33 -56.16)"/><path class="cls-18" d="M545.72,605.51a6.84,6.84,0,0,0,.41,3.44" transform="translate(-65.33 -56.16)"/><path class="cls-18" d="M547.64,655.14l-.74-1.34" transform="translate(-65.33 -56.16)"/><path class="cls-18" d="M542.65,675.64a4.7,4.7,0,0,0-1.31,2.67" transform="translate(-65.33 -56.16)"/><path class="cls-18" d="M571.91,660.09l-1.82,4" transform="translate(-65.33 -56.16)"/></svg>